<?xml version="1.0" encoding="UTF-8" standalone="no"?>
<!-- Created with Inkscape (http://www.inkscape.org/) -->

<svg
   width="18.687134mm"
   height="18.675247mm"
   viewBox="0 0 18.687134 18.675247"
   version="1.1"
   id="svg5"
   xml:space="preserve"
   xmlns:inkscape="http://www.inkscape.org/namespaces/inkscape"
   xmlns:sodipodi="http://sodipodi.sourceforge.net/DTD/sodipodi-0.dtd"
   xmlns="http://www.w3.org/2000/svg"
   xmlns:svg="http://www.w3.org/2000/svg"><sodipodi:namedview
     id="namedview7"
     pagecolor="#ffffff"
     bordercolor="#999999"
     borderopacity="1"
     inkscape:showpageshadow="0"
     inkscape:pageopacity="0"
     inkscape:pagecheckerboard="0"
     inkscape:deskcolor="#d1d1d1"
     inkscape:document-units="mm"
     showgrid="false" /><defs
     id="defs2" /><g
     id="g142"
     transform="matrix(0.03527778,0,0,-0.03527778,-101.67371,81.319367)"><g
       id="g5519"><path
         d="m 3411.8,2206.68 c 0.24,8.97 -13.69,8.96 -13.94,0 -1.53,-57.38 -29.22,-85.4 -84.53,-90.27 -54.93,-4.84 -149.27,-17.6 -159.28,55.51 -0.2,1.37 -0.74,2.33 -1.41,3.13 1.08,13.35 0.58,27.07 0.65,39.5 0.05,8.97 -13.88,8.98 -13.94,0 -0.14,-24.01 3.46,-57.99 -14.69,-76.33 -21.56,-21.77 -64.19,-26.03 -93.22,-26.92 -26.6,-0.82 -62.44,-2.38 -86.28,9.77 -30.63,15.61 -47.5,52.08 -49.12,84.72 -0.45,8.93 -14.39,8.99 -13.94,0 1.63,-32.76 15.09,-63.4 39.83,-84.8 10.44,-32.55 13.6,-66 21.44,-99.13 7,-29.55 17.96,-57.17 21.23,-87.57 2.77,-25.64 4.74,-52.57 2.69,-78.36 -1.99,-25 -11.91,-48.65 -14.88,-73.55 -1.07,-8.89 12.88,-8.81 13.93,0 3.11,26.01 13.62,50.45 15.04,76.74 1.49,27.77 -0.37,56.42 -3.85,83.98 -3.06,24.32 -11.22,46.77 -17.6,70.31 -8.5,31.44 -11.89,63.7 -19.96,95.13 27.13,-13.47 62.46,-12.08 91.47,-11.18 33.58,1.04 78.06,6.23 103.08,31.01 5.46,5.42 9.35,11.69 12.12,18.48 25.33,-59.11 115.05,-49.6 171.73,-43.95 14.6,1.45 27.3,4.67 38.39,9.36 -9.46,-24.41 -12.23,-49.98 -17.25,-76.37 -5.65,-29.66 -17.69,-57.64 -22.02,-87.56 -4.04,-28.04 -5.66,-57.27 -4.6,-85.58 1.05,-27.6 11.52,-53.12 14.71,-80.37 1.03,-8.8 14.98,-8.91 13.94,0 -2.8,23.84 -11.84,46.52 -14.3,70.37 -2.74,26.61 -0.33,55.05 2.52,81.54 3.04,28.19 12.76,53.75 19.52,81.09 9.04,36.58 8.87,74.05 27.76,107.69 0.32,0.54 0.38,1.07 0.52,1.6 21.9,17.5 33.24,44.83 34.24,82.01"
         style="fill:#FF3334;fill-opacity:1;fill-rule:nonzero;stroke:none"
         id="path256" /><path
         d="m 3266.25,2043.09 c -12.21,-21.43 -102.76,-17.34 -113.45,3.4 -0.39,0.76 -0.91,1.28 -1.44,1.78 2.85,13.04 1.21,28.76 0.3,44.54 -0.5,8.92 -14.44,8.97 -13.93,0 1.75,-30.31 8.2,-58.05 -32.21,-61.75 -24.11,-2.21 -62.65,-8.45 -81.08,10.19 -6.32,6.38 -16.17,-3.47 -9.86,-9.86 24.25,-24.51 72.81,-18.74 103.65,-12.75 13.29,2.59 21.61,7.87 26.8,14.94 14.49,-16.68 45.12,-16.17 65,-16.54 21.27,-0.39 55.88,-2.7 68.26,19.01 4.45,7.81 -7.58,14.84 -12.04,7.04"
         style="fill:#FF3334;fill-opacity:1;fill-rule:nonzero;stroke:none"
         id="path258" /><path
         d="m 3135.57,1946.71 c -5.21,-8.53 -18.91,-11.83 -27.87,-12.39 -23.13,-1.43 -61.04,-4.76 -62.41,27.31 -0.38,8.92 -14.33,8.97 -13.94,0 0.64,-14.77 3.18,-28.37 17.63,-35.16 18.04,-8.47 39.47,-7.28 58.72,-6.08 13.96,0.87 29.93,0.4 38.02,13.94 0.05,0.1 0.09,0.21 0.15,0.32 2.25,-3.1 5.21,-5.77 9.47,-7.92 15.9,-7.99 37.47,-6.84 54.66,-7.31 28.03,-0.76 47.99,11.06 52.24,40.59 1.26,8.78 -12.16,12.56 -13.44,3.71 -3.43,-23.82 -17.59,-30.92 -38.8,-30.36 -22.46,0.59 -49.73,-3.06 -58.35,22.88 -0.01,0.03 -0.03,0.04 -0.04,0.07 0.75,9.24 0.22,18.83 -0.21,26.64 -0.48,8.92 -14.42,8.97 -13.94,0 0.39,-7.06 0.65,-14.01 0.04,-21.06 -0.34,-4.07 0.07,-11.9 -1.93,-15.18"
         style="fill:#FF3334;fill-opacity:1;fill-rule:nonzero;stroke:none"
         id="path260" /><path
         d="m 3335.87,2137.45 c 8.97,0 8.99,13.94 0,13.94 -8.96,0 -8.98,-13.94 0,-13.94"
         style="fill:#FF3334;fill-opacity:1;fill-rule:nonzero;stroke:none"
         id="path262" /><path
         d="m 2959.23,2137.45 c 8.97,0 8.99,13.94 0,13.94 -8.96,0 -8.98,-13.94 0,-13.94"
         style="fill:#FF3334;fill-opacity:1;fill-rule:nonzero;stroke:none"
         id="path264" /><path
         d="m 3249.11,1868.02 c -0.18,-13.88 -0.27,-22.64 -14.79,-26.71 -7.48,-2.1 -14.99,-1.74 -22.61,-1.45 -20.86,0.78 -52.29,-4.24 -57.2,22.97 1.01,10.11 -0.26,21.09 -0.53,29.62 -0.29,8.94 -14.22,8.98 -13.94,0 0.39,-12.26 1.94,-23.31 -3.39,-34.59 -4.95,-10.49 -13.84,-12.11 -24.84,-13.94 -11.79,-1.95 -24.63,-1.88 -36.58,-1.32 -19.82,0.95 -23.32,10.1 -26.13,27.28 -1.45,8.83 -14.88,5.08 -13.44,-3.71 2.12,-12.96 4.21,-27.09 17.02,-33.51 16.06,-8.04 41.94,-5.21 58.96,-2.74 11.28,1.64 27.3,4.39 35.52,13.54 13.41,-18.84 43.49,-16.77 66.52,-17.73 11.21,-0.46 26.66,0.17 36.74,5.71 13.2,7.25 12.45,23.23 12.63,36.58 0.12,8.98 -13.83,8.98 -13.94,0"
         style="fill:#FF3334;fill-opacity:1;fill-rule:nonzero;stroke:none"
         id="path266" /><path
         d="m 3013.14,2289.01 c 35.84,0.02 66.63,4.06 95.7,-19.7 6.89,-5.63 16.81,4.18 9.85,9.86 -32.77,26.79 -64.58,23.81 -105.55,23.78 -8.97,-0.01 -8.99,-13.95 0,-13.94"
         style="fill:#FF3334;fill-opacity:1;fill-rule:nonzero;stroke:none"
         id="path268" /><path
         d="m 3183.02,2269.31 c 23.78,25.63 65.28,20.7 97.54,21.87 8.95,0.32 8.98,14.26 0,13.93 -36.73,-1.32 -80.24,3.32 -107.39,-25.94 -6.11,-6.57 3.73,-16.45 9.85,-9.86"
         style="fill:#FF3334;fill-opacity:1;fill-rule:nonzero;stroke:none"
         id="path270" /></g></g></svg>
