<?xml version="1.0" encoding="UTF-8" standalone="no"?>
<!-- Created with Inkscape (http://www.inkscape.org/) -->

<svg
   width="17.695831mm"
   height="18.725079mm"
   viewBox="0 0 17.695831 18.725079"
   version="1.1"
   id="svg5"
   xml:space="preserve"
   xmlns:inkscape="http://www.inkscape.org/namespaces/inkscape"
   xmlns:sodipodi="http://sodipodi.sourceforge.net/DTD/sodipodi-0.dtd"
   xmlns="http://www.w3.org/2000/svg"
   xmlns:svg="http://www.w3.org/2000/svg"><sodipodi:namedview
     id="namedview7"
     pagecolor="#ffffff"
     bordercolor="#999999"
     borderopacity="1"
     inkscape:showpageshadow="0"
     inkscape:pageopacity="0"
     inkscape:pagecheckerboard="0"
     inkscape:deskcolor="#d1d1d1"
     inkscape:document-units="mm"
     showgrid="false" /><defs
     id="defs2" /><g
     id="g142"
     transform="matrix(0.03527778,0,0,-0.03527778,-1.8938345,114.77506)"><g
       id="g998"><path
         d="m 449.125,2756.24 c -46.34,-43.28 -97.941,2.74 -149.805,0.59 -24.808,-1.03 -46.652,-14.02 -70.304,-19.9 -42.305,-10.54 -67.235,20.02 -88.282,51.92 -35.554,53.89 -68.4293,112.27 -72.6285,178.06 -4.2071,65.91 24.5,148.52 97.5315,162.03 52.32,9.68 92.375,-25.27 142.105,-29.03 0.856,-0.3 1.844,-0.42 2.992,-0.27 14.286,0.2 28.258,3.43 42.106,7.65 6.64,1.73 13.105,3.92 19.437,6.38 29.469,10.16 58.703,20.76 89.348,12.39 83.266,-22.74 88.207,-126.31 72.441,-195.47 -13.515,-59.32 -39.593,-132 -84.941,-174.35 z M 228.41,3206.92 c 2.723,9.76 6.305,20.15 11.895,28.54 26.187,-21.23 50.425,-55.05 59.043,-89.48 -15.094,28.14 -40.262,49.77 -70.938,60.94 z m 192.703,31.9 c 8.684,-30.45 1.239,-68.75 -21.226,-91.69 -20.735,-21.17 -52.641,-28.31 -81.43,-32.47 0.109,0.6 0.285,1.14 0.238,1.85 -4.398,59.73 43.067,114.74 102.418,122.31 z m 53.5,-102.42 c -22.32,8.47 -43.394,7.05 -64.136,2.13 1.23,1.32 2.609,2.45 3.765,3.86 22.871,27.93 30.785,69.7 19.379,103.77 -0.203,0.63 -0.57,1.05 -0.887,1.55 -0.281,3.2 -2.41,6.06 -6.574,5.73 -53.906,-4.35 -100.726,-43.15 -116.195,-93.11 -12.133,36.21 -39.113,69.93 -67.586,91.08 -2.106,1.56 -4.145,1.53 -5.863,0.72 -0.2,-0.08 -0.387,-0.22 -0.59,-0.33 -0.41,-0.25 -0.801,-0.51 -1.153,-0.85 -0.277,-0.24 -0.574,-0.34 -0.839,-0.63 -10.86,-12.18 -16.508,-30.37 -20.653,-45.78 -0.683,-2.57 0.082,-4.62 1.457,-6.12 0.793,-1.06 1.828,-1.97 3.41,-2.46 38.696,-11.81 67.563,-42.21 78.364,-80.75 -43.016,7.16 -79.657,34.33 -126.207,28.54 -44.903,-5.57 -79.8519,-36.57 -98.5003,-76.88 -48.1055,-103.96 7.3672,-228.7 75.2183,-310.55 35.54,-42.86 68.567,-38.19 117.231,-22.04 35.269,11.71 59.211,4.95 93.519,-3.66 19.028,-4.77 40.399,-9.75 60.11,-6.64 47.258,7.46 77.746,64.9 94.758,104.15 25.043,57.8 44.379,117.15 42.535,180.85 -1.531,52.8 -28.707,107.73 -80.563,127.42"
         style="fill:#ff9C8C;fill-opacity:1;fill-rule:nonzero;stroke:none"
         id="path198" /><path
         d="m 181.203,3088.08 c -47.051,-19.38 -70.824,-78.67 -62.898,-126.49 1.465,-8.83 14.898,-5.08 13.441,3.7 -6.535,39.44 13.746,93.11 53.164,109.35 8.18,3.36 4.594,16.86 -3.707,13.44"
         style="fill:#ff9C8C;fill-opacity:1;fill-rule:nonzero;stroke:none"
         id="path200" /><path
         d="m 127.563,2932.78 c -8.969,0 -8.985,-13.93 0,-13.93 8.968,0 8.984,13.93 0,13.93"
         style="fill:#ff9C8C;fill-opacity:1;fill-rule:nonzero;stroke:none"
         id="path202" /></g></g></svg>
