<?xml version="1.0" encoding="UTF-8" standalone="no"?>
<!-- Created with Inkscape (http://www.inkscape.org/) -->

<svg
   width="10.857407mm"
   height="21.660669mm"
   viewBox="0 0 10.857407 21.660669"
   version="1.1"
   id="svg5"
   xml:space="preserve"
   xmlns:inkscape="http://www.inkscape.org/namespaces/inkscape"
   xmlns:sodipodi="http://sodipodi.sourceforge.net/DTD/sodipodi-0.dtd"
   xmlns="http://www.w3.org/2000/svg"
   xmlns:svg="http://www.w3.org/2000/svg"><sodipodi:namedview
     id="namedview7"
     pagecolor="#ffffff"
     bordercolor="#999999"
     borderopacity="1"
     inkscape:showpageshadow="0"
     inkscape:pageopacity="0"
     inkscape:pagecheckerboard="0"
     inkscape:deskcolor="#d1d1d1"
     inkscape:document-units="mm"
     showgrid="false" /><defs
     id="defs2" /><g
     id="g142"
     transform="matrix(0.03527778,0,0,-0.03527778,-5.2684988,149.63989)"><g
       id="g1013"><path
         d="m 442.969,3727.79 c -0.621,-22.88 3.168,-63.5 -15.438,-77.73 -18.449,-14.11 -55.297,-6.77 -77.82,-7 -28.598,-0.3 -57.203,-0.96 -85.805,-0.79 -25.582,0.14 -84.933,-8.37 -96.828,21.94 -6.703,17.08 -2.617,48.74 -3.035,67.56 -0.523,23.52 -0.91,47.21 0.449,70.7 1.379,23.85 3.774,39.06 17.914,57.88 8.93,11.89 17.535,22.58 19.973,37.51 2.531,15.57 -0.414,29.93 -9.176,42.75 -7.359,10.77 -14.668,16.02 -18.398,29.37 -4.356,15.57 -2.637,32.78 -3.2,48.94 -1.152,33.14 -4.582,70.81 35.719,77.08 33.836,5.27 67.16,5.38 101.336,5.38 26.137,-1.47 52.34,-2.51 78.442,-4.42 17.011,-1.24 36.257,0.14 45.269,-19.45 4.75,-10.33 3.336,-25.03 3.926,-36.26 0.996,-19.05 3.023,-38.44 2.808,-57.52 -0.257,-22.62 -11.82,-32.12 -23.066,-49.19 -15.254,-23.16 -11.187,-49.94 6.461,-70.72 4.539,-5.34 12.18,-9.84 15.32,-16.11 5.493,-10.93 3.313,-30.81 3.871,-43.05 1.172,-25.61 1.977,-51.24 1.278,-76.87 z m -203.586,430.82 c 19.004,2.02 38.578,1.87 57.676,2.17 19.086,0.31 38.257,0.9 57.339,0.7 36.778,-0.37 37.946,-20.09 36.782,-50.08 -27.293,2.89 -55.59,2.4 -82.52,3.92 -30.191,0 -60.273,0.37 -90.254,-3.53 -2.289,20.49 -3.746,44.21 20.977,46.82 z m 41.746,35.6 c 9.613,0.46 19.019,1.91 24.301,2.22 4.668,0.1 12.843,-0.39 21.234,0.01 0.613,-3.27 0.371,-7.57 0.621,-10.41 0.254,-2.87 0.481,-5.74 0.719,-8.62 -13.469,-1.05 -26.371,-2.57 -36.469,-2.77 -2.797,-0.06 -5.969,0.02 -9.308,0.14 -0.52,6.44 -1.106,13.01 -1.098,19.43 z m -6.668,26.95 c 9.766,6.54 19.82,6.66 31.07,6.66 6.625,0 13.949,0.84 20.086,-1.5 2.891,-1.09 16.192,-9.66 15.321,-12.77 -1.454,-5.13 -30.543,-3.08 -35.508,-3.18 -11.383,-0.67 -22.879,-1.48 -34.289,-1.02 -0.996,0.04 -6.957,-0.23 -7.403,0.53 -1.304,2.22 9.164,10.24 10.723,11.28 z m 180.57,-404.35 c -0.926,18.73 0.207,30.44 -10.851,44.9 -6.582,8.6 -14.66,13.52 -19.317,24.06 -13.746,31.07 6.133,39.95 19.36,60.96 9.187,14.61 9.082,30.6 8.386,47.7 -1.082,26.66 0.442,56.76 -5.964,82.85 -4.77,19.42 -13.657,27.08 -33.2,30.95 -2.73,0.55 -5.57,0.75 -8.336,1.19 1.184,20.28 3.332,49.54 -15.593,60.97 -12.043,7.28 -29.582,8.51 -47.473,7.84 -0.266,6.51 -0.359,13.58 -1.641,20 8.864,2.18 15.516,6.68 14.684,15.9 -2.07,22.91 -32.617,27.62 -49.555,27.63 -15.019,0.01 -27.398,-0.16 -39.593,-9.53 -7.735,-5.94 -19.254,-15.46 -15.899,-26.92 1.981,-6.77 8.816,-9.7 17.16,-10.76 -0.023,-6.34 0.528,-12.82 1.047,-19.19 -17.07,0.73 -36.086,0.95 -48.105,-5.13 -21.403,-10.82 -17.731,-40.87 -15.5,-60.12 -16.446,-2.02 -33.02,-4.76 -41.2,-20.42 -10.039,-19.23 -6.488,-50.2 -5.773,-70.77 0.934,-26.83 -2.453,-49.89 12.418,-72.88 8.418,-13.02 19.691,-21.46 19.172,-38.19 -0.606,-19.28 -11.692,-29.78 -22.305,-44.78 -9.754,-13.77 -13.043,-25.65 -15.019,-42.59 -3.231,-27.69 -2.442,-56.09 -1.922,-83.89 0.476,-25.11 -3.754,-60.85 4.492,-84.66 5.367,-15.49 15.625,-18.21 30.66,-20.39 38.649,-5.61 79.434,-3.44 118.359,-3.02 35.297,0.37 70.817,-0.52 106.079,0.57 15.066,0.47 29.722,0.98 37.921,14.89 10.321,17.52 7.754,48.3 8.727,67.57 1.777,35.11 0.527,70.18 -1.219,105.26"
         style="fill:#ff9C8C;fill-opacity:1;fill-rule:nonzero;stroke:none"
         id="path178" /><path
         d="m 251.785,3922.04 c 35.992,-3.48 71.77,-3.16 107.692,0.96 8.804,1.02 8.906,14.96 0,13.94 -35.93,-4.12 -71.7,-4.44 -107.692,-0.96 -8.926,0.86 -8.863,-13.08 0,-13.94"
         style="fill:#ff9C8C;fill-opacity:1;fill-rule:nonzero;stroke:none"
         id="path180" /><path
         d="m 363.668,3878.66 c -39.293,9.18 -78.641,9.72 -118.195,1.73 -8.785,-1.78 -5.071,-15.21 3.707,-13.44 37.148,7.5 73.871,6.9 110.785,-1.73 8.726,-2.04 12.445,11.4 3.703,13.44"
         style="fill:#ff9C8C;fill-opacity:1;fill-rule:nonzero;stroke:none"
         id="path182" /><path
         d="m 197.801,4066.69 c -17.028,-13.88 -11.754,-37.65 -11.063,-57.01 0.317,-8.95 14.258,-8.99 13.934,0 -0.527,14.85 -5.961,36.61 6.984,47.15 6.953,5.67 -2.961,15.48 -9.855,9.86"
         style="fill:#ff9C8C;fill-opacity:1;fill-rule:nonzero;stroke:none"
         id="path184" /><path
         d="m 220.84,4082.65 c -8.973,0 -8.985,-13.94 0,-13.94 8.965,0 8.976,13.94 0,13.94"
         style="fill:#ff9C8C;fill-opacity:1;fill-rule:nonzero;stroke:none"
         id="path186" /></g></g></svg>
