<?xml version="1.0" encoding="UTF-8" standalone="no"?>
<!-- Created with Inkscape (http://www.inkscape.org/) -->

<svg
   width="21.639374mm"
   height="12.161111mm"
   viewBox="0 0 21.639374 12.161111"
   version="1.1"
   id="svg5"
   xml:space="preserve"
   xmlns:inkscape="http://www.inkscape.org/namespaces/inkscape"
   xmlns:sodipodi="http://sodipodi.sourceforge.net/DTD/sodipodi-0.dtd"
   xmlns="http://www.w3.org/2000/svg"
   xmlns:svg="http://www.w3.org/2000/svg"><sodipodi:namedview
     id="namedview7"
     pagecolor="#ffffff"
     bordercolor="#999999"
     borderopacity="1"
     inkscape:showpageshadow="0"
     inkscape:pageopacity="0"
     inkscape:pagecheckerboard="0"
     inkscape:deskcolor="#d1d1d1"
     inkscape:document-units="mm"
     showgrid="false" /><defs
     id="defs2" /><g
     id="g142"
     transform="matrix(0.03527778,0,0,-0.03527778,-33.33518,144.84578)"><g
       id="g1020"><path
         d="m 1528.13,3912.94 c -0.56,13.04 -1.26,25.81 -1.4,37.61 -0.01,0.77 -0.04,1.53 -0.05,2.3 3.22,-0.01 6.42,-0.03 9.64,-0.14 4.72,-0.17 4.8,0.83 6.2,-2.84 1.11,-2.89 0.02,-7.96 0.2,-11.11 0.22,-3.98 0.76,-7.92 1.07,-11.89 0.26,-3.2 0.41,-6.43 0.38,-9.64 -0.01,-0.28 -0.27,-2.26 -0.18,-3.39 -0.48,-0.2 -0.99,-0.38 -1.42,-0.38 -4.84,0.03 -9.62,-0.42 -14.44,-0.52 z m -15.69,-36.15 c -0.33,-9.67 0.72,-21.52 -1.71,-31.04 -6,-23.41 -20.63,-22.14 -41.37,-22.47 -0.29,14.82 -1.58,29.93 -1.38,43.66 0.39,25.94 0.49,51.78 -0.02,77.72 -0.64,32.55 1.73,65.37 0.76,97.97 8.61,-0.27 17.98,-0.09 25.86,-2.25 15.54,-4.26 15.83,-5.78 17.44,-23.41 1.98,-21.76 0.49,-44.56 0.77,-66.42 0.31,-24.58 0.51,-49.19 -0.35,-73.76 z m -57.83,131.25 c -0.53,-21.15 -1,-42.23 -0.59,-63.38 0.59,-30 0.18,-59.89 -0.17,-89.89 -0.38,-33.09 9.7,-75.86 -37.17,-76.57 -7.82,-0.12 -22.35,-3 -29.75,0.29 -20.98,9.31 -17.18,25.53 -17.52,42.62 -0.58,29.55 -0.61,59.09 -0.23,88.63 0.39,30.72 1.16,61.44 2.13,92.15 1.04,33.18 -8.91,90.39 38.9,90.04 28.41,-0.22 39.31,-9.53 43.99,-39.38 2.25,-14.35 0.77,-30.06 0.41,-44.51 z m -305.48,-93.88 c -0.08,12.14 -0.22,24.28 -0.36,36.44 31.5,1.22 63.19,1.42 94.68,1.79 36.7,0.44 75.75,-3.8 112.28,-0.81 -0.15,-12.14 -0.28,-24.26 -0.42,-36.37 -68.43,-3.65 -137.61,-0.22 -206.18,-1.05 z m -14.44,-108.37 c -1,-15.13 0.57,-25.93 -15.4,-29.62 -8.79,-2.02 -22.29,-0.12 -31.1,0.01 -16.94,0.24 -33.02,7.72 -37.83,25.41 -3.48,12.79 0.45,31.96 0.32,45.34 -0.31,32 -0.86,63.92 -0.23,95.92 0.41,21.17 -0.24,42.24 -0.59,63.39 -0.28,16.74 1.13,33.39 0.97,50.12 -0.27,27.5 18.22,33.8 43.43,33.77 12.22,0.08 28.01,-6.36 34.97,-17.34 4.02,-6.35 2.06,-21.85 2.45,-29.74 0.83,-16.35 1.16,-32.75 1.64,-49.11 0.93,-31.35 1.64,-62.7 1.97,-94.06 0.32,-31.21 1.47,-62.92 -0.6,-94.09 z m -140.889,39.41 c -2.586,10.5 -1.563,23.11 -2.121,34.01 -1.52,29.49 -2.301,59.03 -2.078,88.56 0.132,17.34 -1.821,38.07 2.265,55.02 4.793,19.85 24.063,17.59 42.783,18 -0.59,-32.52 2.49,-65.84 1.86,-97.94 -0.77,-39.52 -2.94,-81.21 -1.32,-121.37 -21.92,0.36 -35.327,-0.93 -41.389,23.72 z m -34.082,69.9 c -0.688,6.23 0.027,13.23 -0.039,19.21 -0.043,3.74 -0.141,7.48 -0.129,11.23 0.004,0.96 0.863,5.62 -0.36,6.05 2.36,0.62 7.532,0.14 9.407,0.19 2.254,0.06 4.515,-0.01 6.777,-0.06 -0.309,-12.1 -0.746,-24.76 -0.961,-37.53 -4.805,-0.24 -10.133,0.02 -14.695,0.91 z m 598.071,11 c -0.39,5.35 -1.12,10.65 -1.27,16.01 -0.17,6.13 1.13,12.56 -2.76,17.73 -6.31,8.37 -17.74,7.24 -27.33,7.03 -0.27,14.03 -0.57,28.07 -0.58,42.1 0,9.66 3.24,26.2 -2.66,34.82 -9.67,14.12 -38.1,12.35 -55.11,12.81 -0.16,2.38 -0.13,4.76 -0.33,7.14 -3.15,36.19 -22.82,41.85 -57.54,42.12 -38.35,0.28 -48.32,-13.25 -50.98,-50.87 -2.1,-29.67 -2.85,-59.58 -3.29,-89.46 -36.59,-3.02 -75.73,1.24 -112.49,0.8 -31.55,-0.38 -63.3,-0.57 -94.85,-1.8 -0.46,29.62 -1.29,59.25 -3.36,88.66 -2.61,37.27 -12.55,51.15 -50.98,50.87 -26.8,0.04 -54.31,-2.57 -57.78,-33.1 -0.61,-5.37 -1.04,-10.77 -1.34,-16.2 -16.75,-0.33 -42.902,1.11 -52.64,-11.21 -12.43,-15.72 -6.695,-57.43 -6.832,-75.78 -0.004,-0.63 -0.031,-1.31 -0.035,-1.94 -7.574,0.38 -16.688,0.92 -22.871,-1.71 -11.278,-4.78 -7.086,-23.96 -6.977,-33.56 0.113,-9.95 -3.469,-25.84 8.992,-28.48 6.239,-1.32 12.903,-1.58 19.493,-1.37 0.027,-23.39 1.378,-46.65 6.554,-67.15 6.489,-25.66 31.116,-25.54 55.086,-26.02 0.22,-3.31 0.23,-6.7 0.51,-9.97 2.85,-32.48 20.63,-34.62 49.36,-35.1 18.29,-0.31 47.1,-6.72 57.76,11.66 6.29,10.85 4.97,29.71 5.36,41.8 0.83,26 0.61,52.05 0.39,78.07 -0.02,2.07 -0.03,4.15 -0.05,6.23 68.49,0.82 137.59,-2.6 205.94,1.04 -0.25,-23.25 -0.33,-46.5 0.09,-69.75 0.27,-15.04 -2.24,-34.16 2.61,-48.51 8.29,-24.52 37.15,-19.08 58.8,-18.75 24.45,0.37 44.78,-1.22 50.52,26.99 1.17,5.78 1.78,11.87 2.06,18.1 22.77,0.44 47.75,0.51 54.26,25.08 5.16,19.47 5.69,41.85 5.1,64.06 7.71,-0.43 16.6,-0.04 22.78,3.08 8.7,4.41 6.99,16.28 6.39,24.53"
         style="fill:#ff9C8C;fill-opacity:1;fill-rule:nonzero;stroke:none"
         id="path388" /><path
         d="m 1065.1,4056.47 c -6.64,-15.89 -4.57,-35.97 -2.53,-52.63 1.07,-8.79 15.02,-8.9 13.93,0 -1.89,15.49 -4.14,34.16 2.04,48.93 3.45,8.26 -10.03,11.87 -13.44,3.7"
         style="fill:#ff9C8C;fill-opacity:1;fill-rule:nonzero;stroke:none"
         id="path390" /><path
         d="m 1084.34,4077.11 c -8.97,0 -8.98,-13.93 0,-13.93 8.97,0 8.98,13.93 0,13.93"
         style="fill:#ff9C8C;fill-opacity:1;fill-rule:nonzero;stroke:none"
         id="path392" /><path
         d="m 1388.22,4062.86 c -4.88,-6.59 -5.42,-16.73 -6.28,-24.55 -1.09,-9.92 -1.7,-20.11 -0.86,-30.07 0.75,-8.87 14.69,-8.95 13.94,0 -0.7,8.3 -0.31,16.73 0.37,25.01 0.57,6.85 0.59,16.8 4.86,22.57 5.34,7.22 -6.75,14.17 -12.03,7.04"
         style="fill:#ff9C8C;fill-opacity:1;fill-rule:nonzero;stroke:none"
         id="path394" /><path
         d="m 1408.04,4080.68 c -8.97,0 -8.98,-13.94 0,-13.94 8.97,0 8.98,13.94 0,13.94"
         style="fill:#ff9C8C;fill-opacity:1;fill-rule:nonzero;stroke:none"
         id="path396" /></g></g></svg>
