<?xml version="1.0" encoding="UTF-8" standalone="no"?>
<!-- Created with Inkscape (http://www.inkscape.org/) -->

<svg
   width="8.9985046mm"
   height="21.694054mm"
   viewBox="0 0 8.9985046 21.694054"
   version="1.1"
   id="svg5"
   xml:space="preserve"
   xmlns:inkscape="http://www.inkscape.org/namespaces/inkscape"
   xmlns:sodipodi="http://sodipodi.sourceforge.net/DTD/sodipodi-0.dtd"
   xmlns="http://www.w3.org/2000/svg"
   xmlns:svg="http://www.w3.org/2000/svg"><sodipodi:namedview
     id="namedview7"
     pagecolor="#ffffff"
     bordercolor="#999999"
     borderopacity="1"
     inkscape:showpageshadow="0"
     inkscape:pageopacity="0"
     inkscape:pagecheckerboard="0"
     inkscape:deskcolor="#d1d1d1"
     inkscape:document-units="mm"
     showgrid="false" /><defs
     id="defs2" /><g
     id="g142"
     transform="matrix(0.03527778,0,0,-0.03527778,-106.76273,49.36767)"><g
       id="g956"><path
         d="m 3222.44,799.23 c -23.81,-5.421 -57.14,-0.73 -81.43,-0.8 -18.15,-0.051 -37.03,-0.16 -55.01,2.57 -10.3,1.57 -26.19,2.398 -33.47,10.039 -9.24,9.691 -7.9,28.191 -7.84,40.781 0.01,0.68 -0.01,1.348 -0.01,2.02 41.04,-2.219 81.43,2.07 122.36,1.301 32.81,-0.61 63.87,-3.762 95.96,2.871 -0.86,-26.934 -6.71,-51.063 -40.56,-58.782 z m -156.61,354.55 c -3.12,9.04 -10.57,12.59 -15.66,20.1 -6.93,10.23 -6.95,17.56 -5.71,30.39 3.26,33.69 24.51,63.98 53.94,79.75 2.12,1.14 3.48,3.64 3.45,6.02 -0.11,10.98 0.08,21.95 0,32.93 35.65,-0.46 71.33,-0.21 106.96,0.85 -0.09,-11.27 0.11,-22.51 0,-33.78 -0.02,-2.39 1.33,-4.88 3.45,-6.02 24.75,-13.33 43.03,-37.41 50.73,-64.79 4.12,-14.65 4.78,-30.14 -3.13,-43.1 -3.99,-6.5 -10.15,-10.53 -13.34,-17.88 -4.57,-10.51 -4.22,-19.81 0.23,-30.27 3.44,-8.08 12.14,-13.69 14.77,-22.09 0.81,-2.57 0.94,-5.72 0.91,-8.94 -72.56,-2.48 -145.22,1.97 -217.65,-2.68 1.66,7.47 5.13,13.89 12.64,24.77 7.85,11.38 13.22,20.85 8.41,34.74 z m 30.98,217.5 c 3.93,14.22 5.53,9.26 15.43,10.97 14.79,2.55 31.93,1.12 46.9,1.27 12.84,0.14 30.76,3.05 43.12,-0.27 18.54,-4.97 14.25,-27.99 13.35,-45.33 -40.04,-1.31 -80.16,-1.57 -120.22,-0.97 0.22,10.86 -1.29,24.52 1.42,34.33 z m -53.55,-299.98 c 0,3.36 0.02,6.27 0.08,8.96 72.78,4.8 145.77,0.28 218.68,2.74 1.07,-70.13 0.64,-140.301 1.12,-210.43 0,-0.101 0,-0.211 0,-0.32 -36.12,-8.301 -71.14,-2.539 -107.75,-3.102 -37.16,-0.57 -73.56,-3.429 -110.78,-1.378 0.05,67.832 -1.32,135.68 -1.35,203.53 z m 232.93,-9.52 c -0.14,16.34 4.01,40 -3.57,55.29 -8.89,17.91 -16.77,27.16 -5.04,47.08 3.19,5.43 8.6,7.69 10.91,13.93 9.17,24.74 -5,56.78 -17.36,77.32 -5.5,9.13 -11.3,18.34 -19.12,25.68 -15.51,14.55 -19.39,19.52 -19.25,43.07 3.87,0.13 7.76,0.11 11.64,0.27 8.93,0.37 8.98,14.32 0,13.94 -1.6,-0.06 -3.21,-0.05 -4.81,-0.11 1.09,16.39 5.67,48.75 -7.12,56.46 -14.01,8.47 -47.71,2.91 -63.33,2.75 -19.47,-0.21 -44.36,2.65 -63.37,-2.48 -21.56,-5.83 -14.28,-39.04 -14.34,-57.92 -0.98,0.01 -1.95,0 -2.92,0.02 -8.98,0.17 -8.98,-13.76 0,-13.94 3.13,-0.07 6.28,-0.02 9.41,-0.07 0.18,-18.82 -0.09,-24.66 -13.68,-37.28 -5.93,-5.51 -11.68,-10.25 -16.73,-16.77 -16.31,-21.09 -27.31,-45.68 -27.69,-72.59 -0.28,-19.09 3.49,-20.22 12.74,-34.47 20.83,-32.11 -8.29,-35.51 -13.18,-61.53 -6.8,-36.18 -0.1,-80.35 0.27,-117.41 0.28,-27.122 0.65,-54.239 0.89,-81.36 0.22,-24.34 -3.63,-52.058 0.57,-76.07 6.83,-39.211 45.79,-38.289 77.49,-40.262 31.17,-1.93 62.36,-0.117 93.55,0.133 24.97,0.187 45.18,-0.141 61.98,20.75 24.82,30.82 12.79,89.641 12.6,126.258 -0.21,43.101 -0.15,86.211 -0.54,129.311"
         style="fill:#FF3334;fill-opacity:1;fill-rule:nonzero;stroke:none"
         id="path322" /><path
         d="m 3149.94,966.121 c 1.04,4.02 -2.07,9.258 -6.71,8.82 -4.65,-0.441 -9.28,-0.582 -13.9,-0.82 9.21,16.129 18.09,32.469 27.48,48.479 -0.92,-9.44 -1.89,-18.87 -3.09,-28.291 -0.47,-3.84 3.6,-6.84 6.98,-6.969 7.22,-0.27 14.44,-0.602 21.66,-0.879 -13.52,-17.582 -26.88,-35.281 -40.14,-53.063 2.6,10.84 4.91,21.774 7.72,32.723 z m -33.06,-6.672 c 5.86,0.231 11.64,0.653 17.44,1.031 -4.66,-20.199 -8.2,-40.492 -16.77,-59.64 -2.92,-6.539 5.62,-15.211 10.95,-8.449 0.37,0.461 0.7,0.949 1.07,1.418 0.01,0 0.01,0 0.01,0 0.01,0.011 0.02,0.019 0.03,0.043 24.33,30.918 46.8,63.238 71.18,94.109 3.76,4.758 1.47,11.48 -4.93,11.891 -9.15,0.588 -18.31,0.808 -27.47,1.108 1.9,16.29 3.37,32.62 5.03,48.93 0.41,1.34 0.39,2.61 -0.07,3.74 -0.69,3.21 -3.67,4.67 -6.76,4.39 -2.2,0.07 -4.44,-0.72 -6,-3.02 -18.43,-27.24 -32.95,-56.82 -49.73,-85.059 -2.61,-4.421 0.71,-10.711 6.02,-10.492"
         style="fill:#FF3334;fill-opacity:1;fill-rule:nonzero;stroke:none"
         id="path324" /><path
         d="m 3120.68,1353.57 c 0,4.2 0,8.4 0,12.61 0,8.96 -13.94,8.98 -13.94,0 0,-4.21 0,-8.41 0,-12.61 0,-8.97 13.94,-8.98 13.94,0"
         style="fill:#FF3334;fill-opacity:1;fill-rule:nonzero;stroke:none"
         id="path326" /><path
         d="m 3148.06,1353.57 c 0,4.2 0,8.4 0,12.61 0,8.96 -13.94,8.98 -13.94,0 0,-4.21 0,-8.41 0,-12.61 0,-8.97 13.94,-8.98 13.94,0"
         style="fill:#FF3334;fill-opacity:1;fill-rule:nonzero;stroke:none"
         id="path328" /><path
         d="m 3175.45,1353.57 c 0,4.2 0,8.4 0,12.61 0,8.96 -13.93,8.98 -13.93,0 0,-4.21 0,-8.41 0,-12.61 0,-8.97 13.93,-8.98 13.93,0"
         style="fill:#FF3334;fill-opacity:1;fill-rule:nonzero;stroke:none"
         id="path330" /><path
         d="m 3202.84,1353.57 c 0,4.2 0,8.4 0,12.61 0,8.96 -13.94,8.98 -13.94,0 0,-4.21 0,-8.41 0,-12.61 0,-8.97 13.94,-8.98 13.94,0"
         style="fill:#FF3334;fill-opacity:1;fill-rule:nonzero;stroke:none"
         id="path332" /><path
         d="m 3081.4,1189.61 c 0.03,22.19 6.22,44.25 26.47,56.07 7.75,4.52 0.75,16.57 -7.03,12.04 -24.48,-14.29 -33.34,-40.98 -33.38,-68.11 -0.01,-8.98 13.93,-8.99 13.94,0"
         style="fill:#FF3334;fill-opacity:1;fill-rule:nonzero;stroke:none"
         id="path334" /><path
         d="m 3119.09,1254.94 c 8.96,0 8.97,13.93 0,13.93 -8.98,0 -8.99,-13.93 0,-13.93"
         style="fill:#FF3334;fill-opacity:1;fill-rule:nonzero;stroke:none"
         id="path336" /></g></g></svg>
