<?xml version="1.0" encoding="UTF-8" standalone="no"?>
<!-- Created with Inkscape (http://www.inkscape.org/) -->

<svg
   width="20.720154mm"
   height="18.870308mm"
   viewBox="0 0 20.720154 18.870308"
   version="1.1"
   id="svg5"
   xml:space="preserve"
   xmlns:inkscape="http://www.inkscape.org/namespaces/inkscape"
   xmlns:sodipodi="http://sodipodi.sourceforge.net/DTD/sodipodi-0.dtd"
   xmlns="http://www.w3.org/2000/svg"
   xmlns:svg="http://www.w3.org/2000/svg"><sodipodi:namedview
     id="namedview7"
     pagecolor="#ffffff"
     bordercolor="#999999"
     borderopacity="1"
     inkscape:showpageshadow="0"
     inkscape:pageopacity="0"
     inkscape:pagecheckerboard="0"
     inkscape:deskcolor="#d1d1d1"
     inkscape:document-units="mm"
     showgrid="false" /><defs
     id="defs2" /><g
     id="g142"
     transform="matrix(0.03527778,0,0,-0.03527778,-67.22306,146.85577)"><g
       id="g1023"><path
         d="m 2358.73,4159.65 c -64.76,9.8 -134.75,-24.56 -157.28,-85.73 -11.25,29.26 -34.69,53.62 -61.97,68.87 -45.71,25.58 -90.63,25.94 -139.56,5.32 -37.79,-15.92 -67.44,-57.76 -83.14,-94.15 -19.85,-45.98 -9.81,-102.27 2.52,-148.89 2.29,-8.67 15.74,-5 13.44,3.7 -20.58,77.77 -17.17,163.63 53.7,215.71 33.29,24.45 90.59,33.06 127.62,16.15 38.8,-17.72 77.39,-52.4 80.36,-97.71 0.59,-9.01 13.15,-8.9 13.93,0 7.32,82.97 109.12,127.29 180.46,93.47 75.81,-35.93 107.8,-137.68 82.85,-214.8 -15.75,-48.66 -78.22,-36.55 -119.32,-36.81 -23.35,-0.14 -46.7,-0.39 -70.04,-0.18 -3.15,0.03 -16.06,0 -15.69,-0.23 -3.67,2.26 -13.12,30.14 -15.33,35.81 -2.94,7.55 -12.69,6.01 -13.69,-1.85 -4.57,-36.12 -14.04,-71.24 -21.49,-106.79 -7.25,59.76 -10.23,120.01 -20.19,179.46 -1.15,6.87 -11.96,6.41 -13.44,0 -9.59,-41.5 -19.18,-83 -28.77,-124.5 -4.28,19.27 -8.56,38.54 -12.85,57.8 -1.42,6.41 -12.36,6.88 -13.43,0 -1.5,-9.57 -3.89,-35.6 -10.36,-40.14 -4.41,-3.1 -21.06,0.13 -26.82,0.17 -25.3,0.16 -50.6,0.33 -75.9,0.49 -27.64,0.18 -71.05,5.68 -69.82,-35.76 0.64,-21.72 20.76,-43.72 33.61,-59.79 18.62,-23.28 40.85,-43.35 64.27,-61.68 48.18,-37.69 101.92,-66.89 153.96,-98.71 2.16,-1.33 4.86,-1.19 7.03,0 94.28,51.46 170.34,118.17 237.31,202.13 5.53,6.95 -4.26,16.87 -9.86,9.86 -44.29,-55.54 -93.22,-108.14 -151.8,-148.69 -18.68,-12.94 -59.56,-50.1 -82.8,-46.9 -10.92,1.51 -25.97,15.46 -35.52,21.12 -14.64,8.67 -29.24,17.39 -43.65,26.42 -31.7,19.88 -62.78,41.14 -90.68,66.16 -16.75,15.03 -100.35,95.08 -45.26,112.12 20.79,6.43 54.76,-0.36 76.57,-0.5 21.63,-0.14 43.26,-0.29 64.88,-0.41 3.15,-0.01 5.8,2.19 6.72,5.12 1.67,5.3 3.16,10.54 4.67,15.79 4.3,-19.31 8.59,-38.63 12.88,-57.94 1.49,-6.68 11.92,-6.62 13.45,0 9.11,39.43 18.22,78.87 27.33,118.3 7.87,-61.93 10.67,-124.44 21.01,-186.09 1.41,-8.46 12.79,-5.19 13.68,1.85 5.29,42.03 17.22,82.74 24.91,124.3 4.75,-10.41 11.22,-18.67 23.96,-20.73 31.56,-5.13 68.51,-0.04 100.42,0.18 29.33,0.2 68.3,-6.33 92.78,13.48 21.24,17.16 25.48,47.57 27.71,73.02 7.53,86.12 -39.74,188.02 -133.37,202.18"
         style="fill:#FF3334;fill-opacity:1;fill-rule:nonzero;stroke:none"
         id="path168" /></g></g></svg>
