<?xml version="1.0" encoding="UTF-8" standalone="no"?>
<!-- Created with Inkscape (http://www.inkscape.org/) -->

<svg
   width="13.652008mm"
   height="21.664207mm"
   viewBox="0 0 13.652008 21.664207"
   version="1.1"
   id="svg5"
   xml:space="preserve"
   xmlns:inkscape="http://www.inkscape.org/namespaces/inkscape"
   xmlns:sodipodi="http://sodipodi.sourceforge.net/DTD/sodipodi-0.dtd"
   xmlns="http://www.w3.org/2000/svg"
   xmlns:svg="http://www.w3.org/2000/svg"><sodipodi:namedview
     id="namedview7"
     pagecolor="#ffffff"
     bordercolor="#999999"
     borderopacity="1"
     inkscape:showpageshadow="0"
     inkscape:pageopacity="0"
     inkscape:pagecheckerboard="0"
     inkscape:deskcolor="#d1d1d1"
     inkscape:document-units="mm"
     showgrid="false" /><defs
     id="defs2" /><g
     id="g142"
     transform="matrix(0.03527778,0,0,-0.03527778,-3.8824209,82.787041)"><path
       d="m 472.344,1921.12 c -10.543,-14.7 -11.539,-17.04 -9.746,-37.91 2.187,-25.56 25.59,-144.91 -27.86,-134.71 -51.058,9.75 -7.734,117.61 -6.32,150.25 0.516,11.92 -0.496,13.61 -4.734,22.21 -4.192,8.52 -19.641,22.44 -7.864,34.11 5.442,5.4 32.149,1.55 39.512,0.92 28.699,-3.79 32.43,-13.37 17.012,-34.87 z m -29.469,202.77 c -20.512,-76.65 -118.492,-99.79 -186.891,-85.11 -80.132,17.2 -104.398,115.23 -85.125,185.79 13.996,51.23 53.778,88.09 100.657,98.94 -18.758,-9.75 -35.278,-23.66 -47.532,-41.55 -45.789,-66.79 -38.699,-188.98 54.907,-205.06 41.781,-7.17 91.277,-0.99 122.211,30.38 30.898,31.33 42.894,82.8 37.711,125.56 -0.579,4.76 -1.567,9.31 -2.715,13.79 16.093,-36.77 18.062,-80.57 6.777,-122.74 z m -126.223,201.77 c 14.352,-1.86 28.805,-6.13 42.918,-13.26 44.285,-22.37 69.575,-57.96 65.922,-108.88 -3.304,-46.1 -24.664,-94.35 -72.008,-109.06 -39.754,-12.34 -103.074,-10.72 -127.445,28.85 -20.367,33.07 -18.578,85.44 -5.969,120.59 15.176,42.28 52.02,75.68 96.582,81.76 z M 194.16,1956.38 c 10.149,-8.04 -3.215,-24.26 -6.648,-30.97 -6.879,-13.46 -8.969,-13.13 -6.367,-29.82 4.683,-30.05 14.187,-58.44 18.156,-88.94 1.82,-14.04 8.461,-33.9 -0.668,-46.91 -8.942,-12.74 -25.215,-13.83 -37.254,-7.24 -23.582,12.87 -19.633,61.23 -17.363,85.26 1.984,20.98 9.246,47.96 2.32,68.79 -4.004,12.03 -5.621,6.24 -13.516,15.44 -24.218,28.27 9.868,33.79 32.321,34.97 6.742,0.03 23.492,3.81 29.019,-0.58 z m 265.86,13.08 c 10.886,61.31 20.742,123.1 21.488,185.51 0.57,47.45 -2.738,100.85 -34.906,138.92 -25.039,29.64 -61.457,44.71 -98.586,46.3 -56.696,16.75 -101.082,-0.12 -146.664,-34.72 -41.36,-31.4 -62.098,-71.03 -66.411,-122.61 -5.875,-70.29 3.309,-143.31 14.911,-212.73 -15.547,-1.08 -33.668,-4.18 -38.52,-16.82 -2.66,-6.93 -0.773,-24.49 2.027,-30.76 4.442,-9.98 14.067,-9.33 18.969,-16.94 7.449,-11.56 0.445,-44.92 -0.953,-56.94 -2.09,-18.02 -3.164,-35.58 -1.152,-53.7 2.457,-22.14 5.207,-54.07 31.226,-60.29 77.797,-18.55 52.25,93 41.942,130.76 -2.102,7.71 -5.305,15.33 -6.649,23.24 -4.863,28.76 -0.722,19.92 8.047,36.67 4.848,9.26 5.992,14.68 4.285,26.06 -3.847,25.65 -21.191,19.58 -43.933,19.49 -0.407,-0.02 -0.93,-0.04 -1.352,-0.06 -7.258,43.24 -12.359,86.72 -14.641,130.51 -2.035,39.05 -4.96,81.89 6.332,119.84 0.344,1.15 0.848,2.16 1.211,3.28 -10.617,-41.19 -7.453,-86.81 9.957,-125.7 35.778,-79.94 128.809,-96.18 204.426,-63.93 35.938,15.31 69.711,37.12 82.578,75.73 14.114,42.37 16.231,99.02 -1.797,140.32 -8.57,19.63 -21.671,36.99 -37.476,51.5 15.328,-10.35 28.144,-23.92 36.258,-40.78 20.613,-42.82 18.426,-93.76 15.683,-139.99 -3.007,-50.65 -11.238,-100.73 -20.125,-150.64 -0.015,-0.08 0.02,-0.14 0.004,-0.22 -18.886,1.73 -39.437,2.52 -45.414,-17.25 -2.543,-8.41 -4.152,-21.83 -0.281,-29.8 6.902,-14.24 13.363,-7.49 13.976,-24.96 1.329,-37.85 -52.914,-157.55 17.797,-164.1 68.547,-6.35 52.332,90.05 46.403,132.78 -1.688,12.21 -6,29.75 1.027,41.43 2.703,4.51 8.969,6.62 11.699,11.05 4.629,7.51 6.043,18.86 5.535,27.5 -1.277,21.82 -18.597,20.35 -36.921,22.05"
       style="fill:#ff9C8C;fill-opacity:1;fill-rule:nonzero;stroke:none"
       id="path210" /></g></svg>
