<?xml version="1.0" encoding="UTF-8" standalone="no"?>
<!-- Created with Inkscape (http://www.inkscape.org/) -->

<svg
   width="16.656525mm"
   height="18.81905mm"
   viewBox="0 0 16.656525 18.81905"
   version="1.1"
   id="svg5"
   xml:space="preserve"
   xmlns:inkscape="http://www.inkscape.org/namespaces/inkscape"
   xmlns:sodipodi="http://sodipodi.sourceforge.net/DTD/sodipodi-0.dtd"
   xmlns="http://www.w3.org/2000/svg"
   xmlns:svg="http://www.w3.org/2000/svg"><sodipodi:namedview
     id="namedview7"
     pagecolor="#ffffff"
     bordercolor="#999999"
     borderopacity="1"
     inkscape:showpageshadow="0"
     inkscape:pageopacity="0"
     inkscape:pagecheckerboard="0"
     inkscape:deskcolor="#d1d1d1"
     inkscape:document-units="mm"
     showgrid="false" /><defs
     id="defs2" /><g
     id="g142"
     transform="matrix(0.03527778,0,0,-0.03527778,-102.63602,148.25691)"><g
       id="g1029"><path
         d="m 3366.43,3828.91 c -1.62,-39.95 -14.79,-77.1 -35.96,-110.85 -25.6,-40.81 -75.19,-32.81 -117.49,-33.71 -50.49,-1.08 -101,-1.57 -151.49,-0.59 -33.28,0.65 -62.98,-2.25 -88.84,22.68 -23.68,22.83 -35.31,55.04 -44.62,85.72 -16.22,53.49 9.53,131.54 44.12,173.06 43.55,52.28 112.54,62.33 176.63,62.83 62.5,-0.69 124.06,-16.35 170.51,-61.19 37.4,-36.1 49.18,-87.9 47.14,-137.95 z m -217.65,213.08 c -43.69,-0.34 -89.07,-4.84 -128.89,-23.44 -16.88,21.55 -38.36,49.7 -20.26,77.28 14.13,21.51 38.35,20.19 60.46,22.53 24.88,2.64 49.11,4.48 74.17,4.56 34.77,0.1 71.47,2.47 106.01,-2.49 24.48,-3.51 46.02,-13.73 47.26,-42.12 1,-22.68 -15.49,-39.95 -27.09,-58.1 -34.14,14.95 -69.94,21.32 -111.66,21.78 z m -168.43,130.26 c 47.66,24.19 114.06,14.37 166.32,15.03 26.31,0.33 52.67,0.1 78.97,-1.06 36.37,-1.6 78.88,2.08 107.61,-24.26 23.77,-21.8 30.31,-59.32 28.2,-90.25 -2.47,-36.31 -21.81,-60.85 -39.25,-89.74 -2.27,1.95 -4.49,3.98 -6.83,5.74 -14.07,10.63 -28.06,19.29 -42.23,26.5 20.07,31.46 50.72,76.81 9.21,106.16 -40.69,28.77 -112.81,16.9 -158.94,16.44 -20.2,-0.21 -39.86,-2.02 -59.93,-4.16 -19.81,-2.11 -45.68,-1.31 -62.39,-13.86 -41.06,-30.85 -17.42,-75.01 6.33,-106.63 -4.19,-2.36 -8.4,-4.69 -12.43,-7.43 -10.49,-7.14 -19.83,-15.5 -28.18,-24.69 -19.73,29.98 -44.27,58.79 -42.71,96.6 1.6,39.35 20.42,77.43 56.25,95.61 z m 397.36,-285.66 c -5.54,30.77 -22.64,62.26 -45.15,85.59 18.25,30.92 38.6,56.75 42.3,94.32 3.15,31.99 -2.38,71.11 -23.53,96.6 -20.71,24.98 -48.75,32.86 -79.85,34.99 -41.46,2.84 -83.27,3.62 -124.81,3.12 -63.29,-0.76 -145.66,12.9 -197.54,-32.71 -25.03,-22.02 -37.26,-58.34 -39.55,-90.89 -3,-42.77 26.38,-74.93 48.02,-108.86 -20.7,-27.04 -33.93,-59.86 -40.76,-93.25 -9.59,-46.82 -7.27,-82.68 11.93,-127.17 10.21,-23.63 28.34,-52.4 50.2,-67.19 14.98,-10.14 33.44,-9.76 50.85,-10.44 53.42,-2.07 106.98,-1.6 160.42,-0.72 34.47,0.57 76.85,-4.54 110.55,4.91 33.21,9.32 49.97,47.68 62.68,76.66 17.97,40.98 22.12,91.2 14.24,135.04"
         style="fill:#ff9C8C;fill-opacity:1;fill-rule:nonzero;stroke:none"
         id="path170" /><path
         d="m 3137.38,3841.19 c -73.89,2.86 -47.06,112.35 19.62,102.99 26.05,-5.26 43.7,-30.25 44.99,-56.37 1.84,-37.21 -34.14,-47.79 -64.61,-46.62 z m 23.32,116.42 c -36.34,5.1 -70.11,-15.86 -79.47,-51.74 -9.1,-34.94 4.62,-69.8 41.98,-77.3 35.38,-7.09 84.37,4.41 91.75,44.75 6.63,36.16 -17.82,76.95 -54.26,84.29"
         style="fill:#ff9C8C;fill-opacity:1;fill-rule:nonzero;stroke:none"
         id="path172" /><path
         d="m 3041.48,3987.62 c -38.3,-20.93 -65.72,-55.73 -77.27,-97.8 -2.38,-8.66 11.07,-12.36 13.44,-3.71 10.62,38.73 35.63,70.23 70.86,89.48 7.87,4.3 0.85,16.34 -7.03,12.03"
         style="fill:#ff9C8C;fill-opacity:1;fill-rule:nonzero;stroke:none"
         id="path174" /><path
         d="m 2963.05,3863.9 c -8.96,0 -8.98,-13.94 0,-13.94 8.97,0 8.98,13.94 0,13.94"
         style="fill:#ff9C8C;fill-opacity:1;fill-rule:nonzero;stroke:none"
         id="path176" /></g></g></svg>
