<?xml version="1.0" encoding="UTF-8" standalone="no"?>
<!-- Created with Inkscape (http://www.inkscape.org/) -->

<svg
   width="20.650513mm"
   height="18.04063mm"
   viewBox="0 0 20.650513 18.04063"
   version="1.1"
   id="svg5"
   xml:space="preserve"
   xmlns:inkscape="http://www.inkscape.org/namespaces/inkscape"
   xmlns:sodipodi="http://sodipodi.sourceforge.net/DTD/sodipodi-0.dtd"
   xmlns="http://www.w3.org/2000/svg"
   xmlns:svg="http://www.w3.org/2000/svg"><sodipodi:namedview
     id="namedview7"
     pagecolor="#ffffff"
     bordercolor="#999999"
     borderopacity="1"
     inkscape:showpageshadow="0"
     inkscape:pageopacity="0"
     inkscape:pagecheckerboard="0"
     inkscape:deskcolor="#d1d1d1"
     inkscape:document-units="mm"
     showgrid="false" /><defs
     id="defs2" /><g
     id="g142"
     transform="matrix(0.03527778,0,0,-0.03527778,-101.08662,116.07646)"><g
       id="g979"><path
         d="m 3380.81,2851.32 c -81.3,-47.46 -181.2,-63.3 -274.08,-55.2 -47.33,4.13 -94.18,14.9 -138.53,31.97 -24.2,9.32 -47.62,20.71 -69.92,33.94 -28.34,16.81 -14.73,51.5 -8.09,79.19 12.89,53.77 35.18,104.76 60.04,153.97 24.26,48.03 48.94,97.05 83.33,138.78 9.92,12.05 19.37,24.29 33.42,31.25 17.59,8.72 40.03,8.46 59.48,9.72 17.63,1.15 35.55,3.85 50.71,-8.16 12.83,-10.17 22.4,-28.95 26.41,-44.4 5.23,-20.22 3.64,-48.93 -14.7,-62.44 -12.91,-9.52 -30.87,-9.87 -46.61,-11.31 -4.23,-0.38 -10.13,-1.75 -14.44,-1.22 -12.53,1.52 -34.67,15.37 -23.46,31.09 4.78,6.73 25.13,9.97 32.81,9.76 8.98,-0.24 8.97,13.69 0,13.94 -16.8,0.45 -52.53,-9.47 -54.85,-30.63 -0.21,-1.83 -0.21,-3.57 -0.07,-5.25 -14.66,-31.39 -17.22,-67.16 -18.75,-101.35 -0.85,-18.68 0.34,-37.73 -1.05,-56.31 -2.6,-34.66 -26.63,-62.33 -50.48,-86.34 -6.34,-6.37 3.51,-16.22 9.85,-9.85 23.12,23.27 42.01,46 50.1,74.51 0.55,0.37 1.12,0.7 1.64,1.31 33.06,39.64 80.21,57.94 130.02,38.19 18.5,-7.34 39.3,-21.66 46.15,-41.51 2.05,-5.94 12.08,-7.28 13.44,0 14.7,78.88 134.93,57.19 163.02,-0.86 25.23,-52.12 2.13,-105.05 -45.39,-132.79 z m 46.48,158.28 c -40.06,50.24 -145.4,58.77 -172.54,-4.78 -11.92,17.09 -31.32,29.67 -50.16,36.3 -48.48,17.09 -94.18,3.53 -128.89,-30.13 0.14,2.41 0.48,4.7 0.48,7.19 0,42.13 -1.23,91.06 14.14,131.52 11.44,-11.46 32.36,-16.23 45.74,-15.62 34.08,1.56 66.32,4.32 79.99,40.51 12.82,33.93 -2.04,73.2 -25.62,98.41 -16.64,17.79 -22.9,18.27 -47,16.86 -23.74,-1.38 -47.6,-2.63 -71.04,-6.84 -39.26,-7.04 -71.81,-67.25 -90.69,-99.45 -56.19,-95.86 -107.93,-201.14 -116.24,-313.45 -0.18,-2.49 1.49,-4.72 3.45,-6.01 148.63,-97.86 368.16,-119.34 523.54,-22.24 56.55,35.33 79.48,111.76 34.84,167.73"
         style="fill:#FF3334;fill-opacity:1;fill-rule:nonzero;stroke:none"
         id="path366" /><path
         d="m 3229.01,2913.24 c -22.34,-19.71 -42.63,-28.13 -72.43,-26.29 -28.5,1.76 -54.75,5.79 -78.73,22.06 -7.46,5.04 -14.43,-7.03 -7.05,-12.04 28.27,-19.16 61.22,-23.46 94.8,-24.41 29.66,-0.84 51.23,11.37 73.26,30.83 6.74,5.95 -3.14,15.78 -9.85,9.85"
         style="fill:#FF3334;fill-opacity:1;fill-rule:nonzero;stroke:none"
         id="path368" /><path
         d="m 3098.76,2966.67 c 6.37,12.53 18.26,19.81 29.92,26.83 7.69,4.62 0.69,16.68 -7.03,12.04 -13.65,-8.21 -27.49,-17.2 -34.92,-31.84 -4.05,-7.98 7.97,-15.04 12.03,-7.03"
         style="fill:#FF3334;fill-opacity:1;fill-rule:nonzero;stroke:none"
         id="path370" /><path
         d="m 3144.06,3000.76 c 8.97,0 8.98,13.94 0,13.94 -8.97,0 -8.98,-13.94 0,-13.94"
         style="fill:#FF3334;fill-opacity:1;fill-rule:nonzero;stroke:none"
         id="path372" /></g></g></svg>
