<?xml version="1.0" encoding="UTF-8" standalone="no"?>
<!-- Created with Inkscape (http://www.inkscape.org/) -->

<svg
   width="15.853577mm"
   height="21.814034mm"
   viewBox="0 0 15.853577 21.814034"
   version="1.1"
   id="svg5"
   xml:space="preserve"
   xmlns:inkscape="http://www.inkscape.org/namespaces/inkscape"
   xmlns:sodipodi="http://sodipodi.sourceforge.net/DTD/sodipodi-0.dtd"
   xmlns="http://www.w3.org/2000/svg"
   xmlns:svg="http://www.w3.org/2000/svg"><sodipodi:namedview
     id="namedview7"
     pagecolor="#ffffff"
     bordercolor="#999999"
     borderopacity="1"
     inkscape:showpageshadow="0"
     inkscape:pageopacity="0"
     inkscape:pagecheckerboard="0"
     inkscape:deskcolor="#d1d1d1"
     inkscape:document-units="mm"
     showgrid="false" /><defs
     id="defs2" /><g
     id="g142"
     transform="matrix(0.03527778,0,0,-0.03527778,-69.684302,49.390604)"><g
       id="g946"><path
         d="m 2407.14,1081.88 c -2.96,-66.13 -1.32,-132.38 -2.06,-198.56 -0.41,-36.25 7.6,-80.34 -39.24,-82.968 -21.75,-1.211 -43.78,-2.313 -65.59,-2.383 -48.11,-0.16 -95.91,-0.821 -144,-1.879 -27,-0.61 -54.03,-0.461 -81.03,0.07 -13.8,0.27 -31.74,-2.129 -45.32,1.192 -40.69,9.976 -38.07,43.457 -38.6,76.148 -0.41,25.66 -0.81,51.301 -1.13,76.961 -0.71,57.319 -1.12,114.649 -0.76,171.979 0.2,31.65 0.62,63.29 1.52,94.93 0.48,16.72 -4.68,48.61 2.13,64.03 11.07,25.08 78.64,20.18 114.3,18.94 -4.23,-5.32 -7.15,-11.43 -8.61,-18.75 -0.5,-0.94 -0.85,-2 -0.83,-3.33 0.05,-2.53 -0.06,-5.53 -0.17,-8.66 -18.27,1.14 -49.48,4.84 -62.28,-2.53 -13.35,-7.69 -8.61,-25.05 -8.19,-38.53 1.39,-43.9 -1.19,-87.86 -0.77,-131.79 2.14,-69.84 -1.45,-139.719 3.58,-209.531 1.18,-16.348 -0.4,-41.969 13.38,-53.207 6.7,-5.473 29.81,-5.551 39.43,-6.352 18.38,-1.551 36.83,-1.219 55.23,-0.16 36.9,2.129 73.95,3.609 110.86,2.898 30.01,-0.57 59.62,1.391 89.63,2.59 10.69,0.43 22.15,0.192 27.64,10.563 6.75,12.769 1.52,42.211 1.63,55.879 0.72,82.609 0.33,165.23 -0.12,247.85 -0.18,32.32 0.92,65.01 -0.82,97.3 -1.69,31.44 -42.22,25.4 -68.26,24.96 -0.41,2.52 -0.89,5.16 -1.49,7.98 -1.9,8.98 -5.97,15.65 -11.32,21.16 12.11,-0.22 24.23,-0.34 36.35,-0.48 12.63,-0.14 25.24,-0.27 37.87,-0.44 24.76,-0.33 36.27,2.87 44.02,-22.39 17.96,-58.5 5.72,-133.42 3.02,-193.49 z m -107.12,173.43 c 12.94,-0.48 26.01,-1.75 38.85,-1.6 4.51,0.06 14.71,-1.55 13.95,-0.41 1.93,-2.88 0.26,-13.83 0.31,-17.16 0.35,-25.5 0.48,-51 0.63,-76.5 0.43,-72.84 0.68,-145.68 0.42,-218.511 -0.07,-25.598 -0.04,-51.219 -0.7,-76.82 -0.07,-2.481 1.23,-15.059 -0.64,-16.848 -6.39,-6.16 -42.17,-0.32 -52.02,-1.141 -29.07,-2.441 -59.23,-4.769 -88.48,-3.992 -33.18,0.883 -65.41,-1.527 -98.78,-1.758 -20.54,-0.129 -57.47,-5.461 -66,14.5 -5.11,11.93 -3.53,30.91 -4.27,43.758 -3.76,65.973 -0.82,131.962 -2.84,197.922 -0.29,29.9 0.79,59.62 1.1,89.49 0.12,12.04 -7.41,53.51 -0.91,63.77 5.65,8.89 40.2,6.58 56.9,5.64 0.28,-12.32 2.52,-24.62 12.58,-29.53 18.04,-8.83 53.47,-1.17 72.5,-1 24.28,0.24 48.5,-0.32 72.77,0.52 30.89,1.08 44.76,6.14 44.63,29.67 z m -134.53,67.36 c 2.88,1.36 3.8,5.02 3.2,7.86 -4.23,20.17 -11.18,42.33 14.33,52.22 15.32,5.94 41.93,4.23 48.88,-14.14 4.2,-11.1 -2.66,-26.62 -7.45,-36.41 -1.27,-2.58 -1.37,-6.39 1.09,-8.44 15.83,-13.24 39.7,-20.62 51.99,-37.14 5.03,-6.75 9.17,-15.75 6.9,-25.16 -6.35,-26.19 -34.18,-22.24 -55.7,-22.47 -26.53,-0.28 -53.09,-0.93 -79.62,-0.89 -6.74,0 -18.51,-1.82 -24.78,0.68 -14.69,5.87 -10.29,7.18 -12.28,19.28 -1.06,6.5 -0.07,13.62 -0.19,20.2 2.86,22.83 35.09,35.62 53.63,44.41 z m 253.84,-302.45 c 0.57,86.23 12.85,173.11 -1.77,258.85 -5.87,34.42 -17.85,32.07 -51.52,32.54 -32.83,0.46 -65.7,0.27 -98.53,1.4 -0.3,0.02 -0.51,-0.1 -0.81,-0.13 -5.05,3.04 -10.31,6.08 -15.52,9.5 -16.97,11.1 -7.87,12.01 -5.41,30.04 1.49,10.86 0.84,22.6 -5.85,31.77 -15.24,20.86 -55.84,19.56 -74.84,5.27 -21.84,-16.43 -6.73,-33.51 -11.82,-53.28 -2.28,-8.81 -20.99,-14.45 -31.65,-22.33 -0.41,0.06 -0.72,0.23 -1.17,0.22 -36.5,-0.74 -87.99,7.25 -122.62,-6.83 -15.58,-6.33 -18.18,-15.89 -19.52,-31.64 -2.33,-27.53 -1.34,-56.04 -1.92,-83.64 -1.54,-73.74 -1.2,-147.52 -0.39,-221.269 0.32,-28.312 0.73,-56.613 1.18,-84.921 0.34,-21.911 -3.88,-50.329 6.02,-70.711 19.57,-40.278 69.43,-32.571 106.23,-33.079 64.94,-0.878 129.73,2.7 194.69,2.149 25.75,-0.219 51.34,2.519 77.05,2.359 21.21,-0.136 36.53,-2.019 49.1,17.782 15.87,25 8.62,63.691 8.88,91.64 0.4,41.442 -0.07,82.879 0.19,124.31"
         style="fill:#FF3334;fill-opacity:1;fill-rule:nonzero;stroke:none"
         id="path280" /><path
         d="m 2212.31,1159.66 c -21.95,1.29 -41.51,3 -63.6,0.72 -8.83,-0.91 -8.93,-14.86 0,-13.94 22.16,2.29 41.58,0.74 63.6,-0.71 10.35,-0.68 19.68,0.68 29.85,1.84 15.47,1.75 29.27,-0.1 44.61,-0.76 8.98,-0.38 8.96,13.56 0,13.94 -10.89,0.47 -21.66,2.49 -32.55,2.13 -14.13,-0.47 -27.63,-4.06 -41.91,-3.22"
         style="fill:#FF3334;fill-opacity:1;fill-rule:nonzero;stroke:none"
         id="path282" /><path
         d="m 2146.31,1085.11 c -8.94,-0.3 -8.98,-14.23 0,-13.93 24.85,0.82 49.6,1.09 74.44,-0.24 24.04,-1.28 44.78,0 68.41,1.56 8.91,0.58 8.98,14.52 0,13.93 -47.53,-3.11 -94.94,0.28 -142.85,-1.32"
         style="fill:#FF3334;fill-opacity:1;fill-rule:nonzero;stroke:none"
         id="path284" /><path
         d="m 2290.79,1010.59 c -25.02,-1.06 -50.01,-1.67 -75.04,-1.31 -25.3,0.37 -48.41,3.17 -72.91,-3.3 -8.67,-2.28 -4.99,-15.73 3.7,-13.429 25.64,6.75 51.81,2.91 78.16,2.687 22.05,-0.168 44.06,0.481 66.09,1.422 8.94,0.379 8.99,14.31 0,13.93"
         style="fill:#FF3334;fill-opacity:1;fill-rule:nonzero;stroke:none"
         id="path286" /><path
         d="m 2290.47,933.781 c -49.12,-6.48 -97.61,8.918 -146.01,-0.019 -8.81,-1.621 -5.08,-15.063 3.71,-13.442 46.77,8.641 94.6,-6.769 142.3,-0.48 8.76,1.16 8.88,15.109 0,13.941"
         style="fill:#FF3334;fill-opacity:1;fill-rule:nonzero;stroke:none"
         id="path288" /><path
         d="m 2119.72,1158.35 c -4.27,0.47 -8.46,0.6 -12.75,0.41 -8.93,-0.42 -8.98,-14.36 0,-13.95 4.3,0.21 8.48,0.07 12.75,-0.4 8.9,-0.99 8.83,12.96 0,13.94"
         style="fill:#FF3334;fill-opacity:1;fill-rule:nonzero;stroke:none"
         id="path290" /><path
         d="m 2106.1,1070.84 c 0.22,0.06 6.45,0.41 5.21,1.82 -0.01,0.06 -0.01,0.12 -0.02,0.18 2.98,-2.31 7.91,-2.76 10.88,1.12 0.03,0.04 0.06,0.08 0.08,0.11 1.94,2.54 0.78,6.32 -1.08,8.45 -4.06,4.63 -13.65,3.02 -18.78,1.75 -8.7,-2.15 -5.01,-15.59 3.71,-13.43"
         style="fill:#FF3334;fill-opacity:1;fill-rule:nonzero;stroke:none"
         id="path292" /><path
         d="m 2117.46,1004.73 c -4.16,0.04 -8.33,0.08 -12.49,0.12 -8.97,0.08 -8.98,-13.862 0,-13.94 4.16,-0.031 8.33,-0.07 12.49,-0.109 8.97,-0.082 8.98,13.849 0,13.929"
         style="fill:#FF3334;fill-opacity:1;fill-rule:nonzero;stroke:none"
         id="path294" /><path
         d="m 2116.72,933.379 c -3.84,-0.149 -7.66,-0.309 -11.5,-0.449 -8.94,-0.352 -8.98,-14.282 0,-13.942 3.84,0.153 7.66,0.301 11.5,0.453 8.93,0.34 8.98,14.278 0,13.938"
         style="fill:#FF3334;fill-opacity:1;fill-rule:nonzero;stroke:none"
         id="path296" /><path
         d="m 2198.27,1349.91 c 0.1,0 0.19,0 0.28,0 8.97,0 8.98,13.93 0,13.93 -0.09,0 -0.18,0 -0.28,0 -8.96,0 -8.98,-13.93 0,-13.93"
         style="fill:#FF3334;fill-opacity:1;fill-rule:nonzero;stroke:none"
         id="path298" /><path
         d="m 2139.53,1259.52 c 0.5,6.07 -1.64,12.44 2.05,17.77 3.39,4.92 8.31,8.25 13.62,10.79 8.09,3.87 1.03,15.88 -7.03,12.03 -7.55,-3.6 -14.1,-8.99 -18.78,-15.97 -5.26,-7.85 -3.07,-15.82 -3.8,-24.62 -0.72,-8.95 13.22,-8.9 13.94,0"
         style="fill:#FF3334;fill-opacity:1;fill-rule:nonzero;stroke:none"
         id="path300" /><path
         d="m 2168.98,1296.12 c 8.96,0 8.98,13.94 0,13.94 -8.97,0 -8.99,-13.94 0,-13.94"
         style="fill:#FF3334;fill-opacity:1;fill-rule:nonzero;stroke:none"
         id="path302" /></g></g></svg>
