<?xml version="1.0" encoding="UTF-8" standalone="no"?>
<!-- Created with Inkscape (http://www.inkscape.org/) -->

<svg
   width="21.566711mm"
   height="17.426231mm"
   viewBox="0 0 21.566711 17.426231"
   version="1.1"
   id="svg5"
   xml:space="preserve"
   xmlns:inkscape="http://www.inkscape.org/namespaces/inkscape"
   xmlns:sodipodi="http://sodipodi.sourceforge.net/DTD/sodipodi-0.dtd"
   xmlns="http://www.w3.org/2000/svg"
   xmlns:svg="http://www.w3.org/2000/svg"><sodipodi:namedview
     id="namedview7"
     pagecolor="#ffffff"
     bordercolor="#999999"
     borderopacity="1"
     inkscape:showpageshadow="0"
     inkscape:pageopacity="0"
     inkscape:pagecheckerboard="0"
     inkscape:deskcolor="#d1d1d1"
     inkscape:document-units="mm"
     showgrid="false" /><defs
     id="defs2" /><g
     id="g142"
     transform="matrix(0.03527778,0,0,-0.03527778,-66.777717,114.98742)"><g
       id="g984"><path
         d="m 2472.7,2797.25 c -22.03,-17.45 -53.4,-16.46 -80.34,-17.32 -41.65,-1.33 -95.34,-8.68 -135.18,5.15 -46.13,16.03 -76.83,58.51 -114.78,86.85 -38.84,29 -84.52,46.19 -127.95,66.84 -24.09,11.45 -47.75,23.91 -68.92,40.26 -11.79,9.09 -27.7,21.11 -34.77,34.39 -8.27,15.55 -5.13,51.87 14.7,59.21 57.31,-29.57 116.7,-59.76 168.97,-97.63 53.22,-38.58 92.32,-91.72 147.89,-128.13 40.65,-26.64 82.12,-38.83 130.61,-41.06 36.17,-1.67 80.85,-3.13 115.01,13.26 -2.58,-8.14 -7.46,-15.66 -15.24,-21.82 z m -279.54,104.56 c -35.71,32.02 -65.86,68.66 -106.61,95.38 -0.56,0.37 -1.14,0.7 -1.69,1.06 27.73,4.85 53.92,3.05 78.37,-14.03 25.56,-17.86 40.92,-52.29 29.93,-82.41 z m -196.37,274.88 c 21.69,-92.25 107.17,-130.45 193.91,-94.47 27.78,-46.97 58.68,-90.7 94.56,-132.57 27.59,-32.19 73.97,-54.85 111.48,-28.69 1.92,-0.97 3.77,-1.93 5.74,-2.94 8.63,-4.4 19.46,-8.55 30.12,-13.07 -11.32,-18.05 -27.69,-27.96 -49.84,-26.99 -13.79,0.6 -26.86,4.79 -40.79,3.34 -22.81,-2.37 -51.89,-17.32 -60.54,-40.06 -26.85,12.61 -51.65,29.82 -75.36,49.37 -0.89,0.73 -1.72,1.51 -2.61,2.25 1.02,0.75 1.92,1.68 2.49,3.06 13.56,32.99 -1.54,72.43 -28.03,94.55 -31.31,26.15 -68.4,27.85 -106.49,19.33 -1.17,-0.26 -2.09,-0.76 -2.83,-1.37 -44.17,27.7 -90.42,52.6 -136.63,76.49 -8.33,40.6 33.51,68.95 64.82,91.77 z m 24.55,66.9 c 12.71,-6.66 12.91,-23.57 1.47,-31.64 -0.43,-0.3 -0.66,-0.7 -1,-1.05 0.64,5.87 -0.04,11.82 -2.52,17.08 -1.79,3.78 -5.12,6.71 -6.84,10.45 -3.39,7.44 3.28,8.1 8.89,5.16 z m 22.82,-83.44 c 4.61,-12.81 14.32,-25.4 24.71,-34.16 24.3,-20.51 55.85,-34.01 86.36,-22.85 5.02,1.83 11.47,5.17 18.41,8.65 3.23,-5.93 6.71,-11.58 10.04,-17.4 -33.75,-13.49 -64.18,-17.82 -99.69,-5.15 -43.62,15.58 -66.2,52.48 -75.12,96.52 1.84,1.44 3.62,2.87 5.26,4.28 19.52,16.48 25.1,-16.19 30.03,-29.89 z m 136.39,-3.37 c 6,1.67 18.03,3.14 23.74,-0.06 3.68,-2.07 7,-10.85 9.17,-17.55 -12.75,-1.93 -26.08,-7.88 -35.61,-11.63 -6.14,-2.42 -12.48,-5.37 -18.95,-8.02 1.09,15.96 3.78,32.29 21.65,37.26 z m 65.78,-57.53 c -9.72,-0.13 -19.45,0.04 -29.2,0.66 -8.95,0.57 -8.91,-13.36 0,-13.93 12.61,-0.81 25.19,-0.75 37.77,-0.3 4.69,-8.18 8.92,-16.48 13.04,-23.74 -9.15,-0.08 -18.3,0.15 -27.46,0.74 -8.95,0.57 -8.91,-13.37 0,-13.94 12.08,-0.77 24.13,-0.75 36.19,-0.37 5.36,-7.98 10.84,-15.89 16.62,-23.6 -7.83,0.02 -15.66,0.17 -23.51,0.68 -8.96,0.57 -8.92,-13.37 0,-13.94 11.44,-0.73 22.87,-0.76 34.3,-0.45 6.28,-7.94 12.67,-15.78 19.23,-23.5 -7.6,0.02 -15.22,0.17 -22.85,0.65 -8.95,0.58 -8.91,-13.36 0,-13.94 11.54,-0.73 23.05,-0.75 34.55,-0.44 6.89,-7.85 13.84,-15.6 20.81,-23.31 -5.3,0.12 -10.6,0.12 -15.91,0.46 -8.96,0.57 -8.93,-13.37 0,-13.94 10.3,-0.66 20.59,-0.77 30.88,-0.59 3.94,-2.98 8.06,-5.65 12.33,-8.11 -45.31,-26.78 -87.39,31.25 -113.14,61.97 -32.82,39.18 -59.23,82.6 -83.73,127.45 9.14,4.03 18.26,7.09 25.53,6.33 14.53,-1.51 25.47,-11.9 34.55,-24.84 z m 243.82,-263.02 c -37.65,-23.28 -96.2,-19.31 -138.67,-15.03 -20.29,2.04 -39.24,7.13 -57.25,14.35 8.98,27.24 47.48,33.53 71.28,30.7 11.36,-1.35 23.24,-4.15 34.69,-2.32 19.13,3.06 35.39,18.73 45.21,35.19 7.2,-3.53 13.89,-7.37 19.09,-11.81 14.48,-12.38 24.88,-32.03 25.65,-51.08 z m -2.64,49.2 c -15.97,20.5 -45.99,27.77 -67.82,39.21 -8.38,4.39 -17.11,8.4 -25.45,12.99 7.95,1.56 7.79,14.37 -0.85,13.7 -5.93,-0.45 -11.85,-0.56 -17.77,-0.74 -8.04,7.18 -14.8,15.61 -21.49,24.09 8.69,0.88 8.72,14.57 -0.17,13.89 -3.66,-0.29 -7.32,-0.29 -10.98,-0.46 -7.1,7.84 -13.95,15.74 -20.64,23.72 0.31,0.02 0.62,0.01 0.93,0.04 8.88,0.68 8.96,14.63 0,13.93 -3.97,-0.31 -7.93,-0.32 -11.9,-0.5 -6.19,7.76 -12.2,15.67 -18,23.77 0.21,0.02 0.4,0.01 0.61,0.03 8.88,0.69 8.95,14.63 0,13.93 -3.29,-0.25 -6.58,-0.24 -9.87,-0.41 -3.14,4.69 -6.33,9.29 -9.33,14.14 -1.71,2.76 -3.43,6.06 -5.17,9.53 0.33,0.03 0.68,0.02 1.02,0.04 8.88,0.69 8.95,14.63 0,13.94 -2.57,-0.2 -5.13,-0.18 -7.69,-0.32 -7.62,15.63 -16.57,32.06 -29.36,37.58 -1.77,0.76 -3.66,1.22 -5.59,1.59 -2.22,6.95 -4.87,14.03 -7.68,20.65 -1.39,3.28 -2.15,6.37 -5.25,8.55 -8.7,6.13 -26.74,4.4 -36.3,2.31 -28.03,-6.11 -32.68,-31.14 -34.12,-56.04 v 0 c -7.77,-2.07 -15.67,-2.96 -23.66,-1.19 -20.53,4.55 -46.63,22.66 -57.65,39.96 -10,15.71 -3.79,40.85 -20.02,51.92 -1.72,1.17 -3.55,2.02 -5.41,2.68 13.53,18.81 5.99,48.61 -21.06,51.41 -10.65,1.1 -20.73,-5.72 -20.43,-17.3 0.19,-6.87 5.38,-11.56 8.54,-17.08 5.23,-9.14 3.33,-20.55 -4.2,-27.94 -0.05,-0.05 -0.06,-0.1 -0.11,-0.15 -33.85,-27.74 -90.86,-60.49 -82.81,-111.88 -31.77,-13.46 -30.34,-65.08 -11.5,-88.48 34.48,-42.83 90.09,-64.87 138.58,-86.95 24.87,-11.32 49.98,-22.76 72.98,-37.63 29.9,-19.34 53.41,-45.6 80.99,-67.77 42.95,-34.54 78.15,-37.86 131.42,-38.49 30.8,-0.36 61.65,-0.41 92.39,1.86 21.46,1.58 40.41,2.1 57.09,16.94 29.74,26.43 32.44,69.21 7.73,100.93"
         style="fill:#FF3334;fill-opacity:1;fill-rule:nonzero;stroke:none"
         id="path204" /><path
         d="m 1979.5,2992.11 c -17.64,7.15 -44.74,26.05 -45.72,47.32 -0.41,8.93 -14.35,8.98 -13.93,0 1.3,-28.4 32.03,-51.06 55.94,-60.76 8.31,-3.37 11.92,10.11 3.71,13.44"
         style="fill:#FF3334;fill-opacity:1;fill-rule:nonzero;stroke:none"
         id="path206" /><path
         d="m 1994.33,2979.54 c -8.96,0 -8.97,-13.94 0,-13.94 8.97,0 8.99,13.94 0,13.94"
         style="fill:#FF3334;fill-opacity:1;fill-rule:nonzero;stroke:none"
         id="path208" /></g></g></svg>
