<?xml version="1.0" encoding="UTF-8" standalone="no"?>
<!-- Created with Inkscape (http://www.inkscape.org/) -->

<svg
   width="18.887024mm"
   height="18.797079mm"
   viewBox="0 0 18.887024 18.797079"
   version="1.1"
   id="svg5"
   xml:space="preserve"
   xmlns:inkscape="http://www.inkscape.org/namespaces/inkscape"
   xmlns:sodipodi="http://sodipodi.sourceforge.net/DTD/sodipodi-0.dtd"
   xmlns="http://www.w3.org/2000/svg"
   xmlns:svg="http://www.w3.org/2000/svg"><sodipodi:namedview
     id="namedview7"
     pagecolor="#ffffff"
     bordercolor="#999999"
     borderopacity="1"
     inkscape:showpageshadow="0"
     inkscape:pageopacity="0"
     inkscape:pagecheckerboard="0"
     inkscape:deskcolor="#d1d1d1"
     inkscape:document-units="mm"
     showgrid="false" /><defs
     id="defs2" /><g
     id="g142"
     transform="matrix(0.03527778,0,0,-0.03527778,64.270321,129.58605)"><g
       id="g1036"
       transform="translate(-5648.2568,-526.18107)"><path
         d="m 4344.95,3986.79 c -1.06,-54.54 -1.28,-109.08 -1.41,-163.62 -0.06,-25.09 -0.01,-50.17 0.02,-75.26 0.01,-11.37 1.69,-26.96 -2.65,-37.55 -10.72,-26.16 -41.39,-24.64 -63.81,-25.98 -52.1,-3.12 -104.33,-0.75 -156.47,-0.26 -52.27,0.49 -104.51,-2.32 -156.77,-0.99 -24.6,0.63 -50.91,0.24 -75.24,3.88 -32.74,4.91 -41.78,26.9 -45.9,55.35 -8.11,55.93 1.13,114.41 0.55,170.67 -0.56,53.35 -0.38,106.66 2.12,159.99 2.1,44.5 24.58,67.32 70.01,69.31 29.18,1.28 58.61,0.03 87.87,-0.38 -5.42,-11.18 -8.76,-23.44 -9.38,-36.37 -2.62,-55.94 46.28,-108.11 102.72,-107.87 56.54,0.25 99.78,49.29 98.82,103.77 -0.29,16.37 -3.33,30.44 -8.63,42.5 17.01,0.11 34.02,0.99 51.04,0.62 22.14,-0.48 52.24,3.6 71.52,-8.25 47.45,-29.17 36.52,-101.78 35.59,-149.56 z m -247.7,198.69 c 45.94,-5.13 81.94,-28.71 84.11,-78.24 2.19,-50.23 -33.27,-94.63 -85.51,-94.34 -46.35,0.25 -87.92,40.15 -88.01,87.44 -0.1,47.77 42.63,86.92 89.41,85.14 z m 238.86,-54.29 c -37.55,42.62 -106.1,26.03 -156.9,26.61 -16.74,24.3 -45.51,37.54 -81.96,41.62 -34.13,1.29 -66.57,-16.4 -85.75,-43.64 -35.82,0.29 -72.4,2.9 -108.1,0.08 -19.5,-1.55 -38.68,-5.58 -51.9,-20.85 -13.49,-15.56 -18.61,-38.17 -19.97,-58.18 -2.09,-30.67 -1.94,-62.01 -3.1,-92.79 -1.3,-34.32 1.4,-68.61 0.57,-102.96 -0.97,-40.05 -3.97,-80.19 -1.82,-120.25 1.79,-33.18 6.09,-77.88 44.38,-86.19 64.07,-13.9 137.91,-5.64 203.04,-4.64 69.41,1.07 139.02,-3.89 208.34,0.83 51.99,3.54 74.34,17.14 74.56,72.01 0.3,72.34 -0.28,144.7 0.88,217.04 0.84,52.14 15.28,128.69 -22.27,171.31"
         style="fill:#ff9C8C;fill-opacity:1;fill-rule:nonzero;stroke:none"
         id="path188" /><path
         d="m 4094.27,4105.61 c 0.56,-0.31 1.11,-0.61 1.75,-0.79 0.12,-0.09 0.16,-0.22 0.29,-0.31 4.25,-3.09 -3.25,-10.91 -7,-3.6 -1.79,3.49 1.74,4.92 4.96,4.7 z m -12.05,-17.08 c 8.45,-6.35 18.55,-7.15 25.19,2.13 5.01,7.02 4.77,15.16 0.17,21.42 -0.08,0.77 -0.35,1.51 -0.75,2.22 3.75,10.29 7.42,20.62 11.07,30.95 3,8.47 -10.47,12.11 -13.44,3.7 -3.49,-9.87 -7.01,-19.74 -10.58,-29.58 -15.51,-0.44 -27.74,-18.74 -11.66,-30.84"
         style="fill:#ff9C8C;fill-opacity:1;fill-rule:nonzero;stroke:none"
         id="path190" /><path
         d="m 4283.18,3755.52 c -9.48,-24.01 -30.7,-21.68 -53.7,-22.49 -57.02,-2.01 -114.36,-5.79 -171.41,-5.98 -28.01,-0.1 -55.41,3.1 -83.28,4.83 -25.27,1.58 -59.79,-6.67 -69.91,23.48 -7.47,22.24 -3.89,51.03 -3.62,74.23 0.33,26.63 -0.16,53.16 -0.94,79.78 -0.78,26.4 -12.9,73.5 18.28,86.64 16.39,6.91 62.74,6.13 76.3,-5.96 31.16,-26.95 70.05,-45.45 112.37,-41.38 19.7,1.89 39.96,8.33 57.4,17.66 17.93,9.59 31.46,30.61 50.61,36.65 8.41,2.65 26.18,2.24 34.5,1.17 17.59,3.64 29.32,-5.49 35.18,-27.36 0.45,-6.39 0.71,-12.78 0.75,-19.18 0.52,-27.73 -1.84,-55.36 -2.11,-83.07 -0.25,-26.5 1.75,-52.9 2.43,-79.37 0.34,-13.29 2.11,-27.07 -2.85,-39.65 z m 15.88,163.61 c 0.77,22.04 5.36,52.79 -2.25,73.94 -5.21,14.52 -16.68,22.97 -31.42,25.16 -16.55,2.45 -50.73,3.64 -66.52,-4.46 -7.78,-3.99 -13.59,-15.03 -19.83,-20.65 -13.91,-12.54 -31.99,-20.96 -49.93,-25.95 -45.67,-12.7 -89.58,2.65 -124.36,32.73 -20.19,18.02 -75.86,18.51 -99.02,7.16 -31.03,-15.19 -20.48,-57.99 -19.71,-85.6 1.44,-52.1 -5.38,-109.07 3.64,-160.48 4.15,-23.66 15.47,-36.59 39.2,-41.08 30.46,-5.77 66.03,-4.81 97.15,-6.22 32.13,-1.46 64.32,-0.07 96.41,1.58 29.51,1.51 59.01,3.47 88.57,3.81 23.55,0.27 46.08,-5.03 66.67,8.11 34.1,21.76 22.41,65.64 20.96,100.69 -1.28,30.52 -0.63,60.74 0.44,91.26"
         style="fill:#ff9C8C;fill-opacity:1;fill-rule:nonzero;stroke:none"
         id="path192" /><path
         d="m 4036.22,4106.52 c 1.43,16.66 9.85,34.35 24.86,42.68 7.85,4.35 0.83,16.39 -7.03,12.03 -19.5,-10.81 -29.92,-33.19 -31.76,-54.71 -0.76,-8.93 13.17,-8.88 13.93,0"
         style="fill:#ff9C8C;fill-opacity:1;fill-rule:nonzero;stroke:none"
         id="path194" /><path
         d="m 4027.89,4092.23 c -8.96,0 -8.98,-13.93 0,-13.93 8.97,0 8.99,13.93 0,13.93"
         style="fill:#ff9C8C;fill-opacity:1;fill-rule:nonzero;stroke:none"
         id="path196" /></g></g></svg>
