<?xml version="1.0" encoding="UTF-8" standalone="no"?>
<!-- Created with Inkscape (http://www.inkscape.org/) -->

<svg
   width="18.261597mm"
   height="18.442863mm"
   viewBox="0 0 18.261597 18.442863"
   version="1.1"
   id="svg5"
   xml:space="preserve"
   xmlns:inkscape="http://www.inkscape.org/namespaces/inkscape"
   xmlns:sodipodi="http://sodipodi.sourceforge.net/DTD/sodipodi-0.dtd"
   xmlns="http://www.w3.org/2000/svg"
   xmlns:svg="http://www.w3.org/2000/svg"><sodipodi:namedview
     id="namedview7"
     pagecolor="#ffffff"
     bordercolor="#999999"
     borderopacity="1"
     inkscape:showpageshadow="0"
     inkscape:pageopacity="0"
     inkscape:pagecheckerboard="0"
     inkscape:deskcolor="#d1d1d1"
     inkscape:document-units="mm"
     showgrid="false" /><defs
     id="defs2" /><g
     id="g142"
     transform="matrix(0.03527778,0,0,-0.03527778,-135.32887,81.165063)"><g
       id="g5193"><path
         d="m 4327.59,2260.7 c -5.63,-9.17 -12.11,-20.04 -19.04,-28.08 -15.31,-17.75 -31.92,-19.88 -51.66,-19.54 -0.04,0 -0.08,0 -0.12,0 -6.58,0.11 -13.51,0.51 -20.86,0.68 -17.67,-0.65 -35.52,-0.3 -53.18,0.23 -11.56,0.35 -38.62,2.86 -14.31,11.46 10.67,3.77 32.93,-0.56 44.06,-0.37 16.65,0.28 33.38,0.41 50.02,1.04 10.94,0.42 21.01,0.18 30.54,6.39 14.24,9.27 16.52,28.58 28.73,38.74 26.69,22.23 9.23,-5.01 5.82,-10.55 z m -162.92,-254.93 c -6.6,2.23 -13.16,4.3 -19.66,6.2 25.5,63.54 51.9,126.07 83.95,186.64 0.14,0.25 0.13,0.49 0.22,0.75 2.7,0.22 5.09,0.4 6.73,0.46 3.1,-0.07 6.42,-0.26 9.85,-0.48 -31.68,-62.6 -55.32,-128.4 -81.09,-193.57 z m 120.26,-135.82 c -3.81,-44.99 -58.68,-42.8 -94,-47.56 -45.53,-6.14 -92.38,-3.62 -138.24,-4.22 -78.44,-1.02 -226.81,8.61 -201.43,127.63 24.72,115.93 159.32,82.41 240.5,64.81 65.48,-13.01 200.69,-52.34 193.17,-140.66 z m -45,-71.19 c -2.02,-5.94 -8.97,-7.88 -14.51,-6.45 -6.3,1.64 -9.71,5.79 -6.22,12 1.84,3.26 4.79,5.34 8.11,6.68 1.53,0.21 3.07,0.39 4.6,0.63 5.4,-0.97 9.83,-7.51 8.02,-12.86 z m -299.64,0 c -2.02,-5.94 -8.98,-7.88 -14.51,-6.45 -6.29,1.64 -9.72,5.79 -6.23,12 2.47,4.36 6.84,6.72 11.55,7.77 0.38,-0.13 0.65,-0.35 1.09,-0.42 5.44,-0.92 9.91,-7.52 8.1,-12.9 z m -22.65,386.28 c 4.05,1.24 8.1,2.48 12.2,3.37 0.15,0.03 0.31,0.04 0.47,0.07 -0.05,-0.72 -0.11,-1.44 0.08,-2.25 11.46,-47.41 25.04,-94.26 36.33,-141.71 -5.18,-0.06 -10.33,-0.32 -15.43,-0.78 -11.36,47.06 -23.01,94.06 -33.65,141.3 z m -39.22,10.37 c -13.8,3.8 -37.75,29.22 -14.78,37.84 23.65,3.71 44.86,-5.16 67.55,-9.72 10.29,-2.06 36.7,-0.64 45.29,-5.81 16.21,-9.77 -13.68,-10.95 -21.1,-11.67 -11.44,-1.11 -22.65,-2.61 -33.83,-5.31 -14.43,-3.49 -27.84,-9.55 -43.13,-5.33 z m 453.93,105.02 c -9.52,-1.69 -14.51,-10.67 -19.59,-17.79 -5.23,-7.33 -9.5,-15.24 -14.51,-22.69 -10.82,-16.05 -21.69,-18.3 -40.19,-19.94 -27.02,-2.4 -55.16,-1.51 -82.26,-0.88 -14.07,0.32 -30.58,3.88 -35.65,-12.65 -9.52,-31.12 40.59,-30.65 72.98,-28.39 -30.86,-59.29 -56.66,-120.37 -81.55,-182.4 -12.74,3.35 -25,6.15 -36.12,8.36 -35.75,7.75 -75.72,18.27 -114.32,20.2 -11.48,48.81 -25.53,96.95 -37.31,145.68 -0.05,0.21 -0.17,0.32 -0.23,0.52 15.34,1.51 30.84,0.93 45.92,3.65 27.23,4.92 20.65,35.81 -4.91,37.86 -21.43,1.73 -41.63,2.95 -62.92,8.08 -20.38,4.91 -37.77,9.56 -58.55,7.01 -0.97,0.14 -2.02,0.08 -3.21,-0.36 -1.66,-0.27 -2.76,-1.04 -3.58,-1.99 -18.94,-10.36 -21.31,-38.77 -3.79,-53.67 11.43,-9.71 32.99,-12.23 47.18,-10.41 1.49,0.19 2.96,0.55 4.43,0.85 10.52,-46.67 22.01,-93.1 33.24,-139.61 -26.47,-4.7 -51.13,-16.08 -71.79,-38.84 -47.83,-52.66 -35.86,-133.41 23.68,-171.08 8.17,-5.18 16.71,-9.36 25.48,-12.78 -4.33,-3.33 -7.87,-7.63 -9.69,-13.39 -4.37,-13.92 5.68,-24.83 19.03,-27.35 12.26,-2.32 25.95,4.11 29.6,16.64 1.29,4.4 0.97,9.26 -0.52,13.78 15.73,-2.67 31.79,-3.93 47.81,-4.46 54.73,-1.8 111.48,-2.12 166.12,1.57 11.86,0.8 25.32,1.47 39.07,2.65 -0.43,-0.99 -1.13,-1.76 -1.47,-2.83 -4.38,-13.92 5.68,-24.83 19.04,-27.35 12.25,-2.32 25.94,4.11 29.59,16.64 1.93,6.57 0.28,14.12 -3.61,20.06 7.56,1.81 14.8,3.97 21.32,6.76 25.13,10.79 31.11,41.69 27.15,66.4 -9.11,56.72 -63.77,91.57 -120.48,112.82 26.31,66.48 50.26,133.69 83.13,197.33 18.32,-0.89 37.65,-0.13 49.9,11.58 11.15,10.67 20.6,30.45 28.86,43.66 4.38,7 14.37,19.27 14.11,27.86 -0.33,11.33 -9.08,21.1 -21.39,18.9"
         style="fill:#ff9C8C;fill-opacity:1;fill-rule:nonzero;stroke:none"
         id="path272" /><path
         d="m 4118.24,1970.14 c -2.41,-2.17 -5.06,-4.24 -7.63,-6.25 -11.07,9.32 -22.09,18.69 -33.82,27.15 1.56,1.62 3.18,3.01 4.73,3.29 2.53,0.46 11.5,-6.28 13.91,-7.79 3.74,-2.35 17.52,-11.35 22.81,-16.4 z m -67.82,-57.44 c -4.92,-44.54 -31.92,-68.88 -76.95,-63.49 -41.14,4.93 -77.13,34.71 -67.65,80.43 7.69,37.06 49.57,69.6 88.08,62.72 21.66,-5.2 46.77,-10.42 55.16,-35.31 0.15,-0.44 0.17,-0.98 0.31,-1.43 -22.65,-10.75 -45.54,-20.96 -69.41,-28.76 -8.48,-2.77 -4.85,-16.24 3.71,-13.44 23.33,7.63 45.75,17.48 67.92,27.9 0.54,-9.78 -0.23,-20.15 -1.17,-28.62 z m 11.15,82.08 c -1.88,-1.94 -2.18,-4.17 -1.68,-6.19 0.02,-0.13 0.07,-0.23 0.09,-0.36 0.16,-0.49 0.3,-0.97 0.54,-1.43 0.51,-1.1 1.22,-2.15 2.46,-2.97 6.14,-4.08 11.98,-8.56 17.74,-13.17 -6.84,-3.31 -13.67,-6.62 -20.5,-9.92 -8.88,22.38 -29,36.99 -62.62,45.06 -45.97,8.22 -95.06,-27.27 -105.21,-72.46 -11.38,-50.61 25.97,-89.57 73.7,-97.32 49.43,-8.03 87.56,13.86 96.72,64.6 3.23,17.88 3.73,33.33 1.29,46.6 9.49,4.55 18.96,9.15 28.43,13.73 4.29,-3.61 8.57,-7.23 12.86,-10.82 2.61,-2.15 5.64,-2.07 8.04,-0.84 1.04,0.26 2.06,0.7 3.03,1.52 5.55,4.7 19.54,11.9 17.26,21.03 -2.13,8.57 -16.81,16.14 -23.45,21.24 -7.4,5.67 -18.12,13.55 -27.14,16.06 -9.38,2.6 -15.89,-8.5 -21.56,-14.36"
         style="fill:#ff9C8C;fill-opacity:1;fill-rule:nonzero;stroke:none"
         id="path274" /><path
         d="m 4237.51,1890.83 c -0.22,-8.98 13.71,-8.98 13.94,0 0.45,18.76 -7.63,36.65 -22.35,48.38 -6.94,5.53 -16.86,-4.26 -9.85,-9.86 12.06,-9.61 18.63,-23.05 18.26,-38.52"
         style="fill:#ff9C8C;fill-opacity:1;fill-rule:nonzero;stroke:none"
         id="path276" /><path
         d="m 4236.34,1872.84 c -8.96,0 -8.98,-13.94 0,-13.94 8.97,0 8.98,13.94 0,13.94"
         style="fill:#ff9C8C;fill-opacity:1;fill-rule:nonzero;stroke:none"
         id="path278" /></g></g></svg>
