<?xml version="1.0" encoding="UTF-8" standalone="no"?>
<!-- Created with Inkscape (http://www.inkscape.org/) -->

<svg
   width="18.057068mm"
   height="21.561783mm"
   viewBox="0 0 18.057068 21.561783"
   version="1.1"
   id="svg5"
   xml:space="preserve"
   xmlns:inkscape="http://www.inkscape.org/namespaces/inkscape"
   xmlns:sodipodi="http://sodipodi.sourceforge.net/DTD/sodipodi-0.dtd"
   xmlns="http://www.w3.org/2000/svg"
   xmlns:svg="http://www.w3.org/2000/svg"><sodipodi:namedview
     id="namedview7"
     pagecolor="#ffffff"
     bordercolor="#999999"
     borderopacity="1"
     inkscape:showpageshadow="0"
     inkscape:pageopacity="0"
     inkscape:pagecheckerboard="0"
     inkscape:deskcolor="#d1d1d1"
     inkscape:document-units="mm"
     showgrid="false" /><defs
     id="defs2" /><g
     id="g142"
     transform="matrix(0.03527778,0,0,-0.03527778,-35.092901,82.729684)"><g
       id="g926"><path
         d="m 1480.27,1897.97 c -13.45,-44.85 -49.55,-81.2 -86.37,-108.74 -44.72,-33.43 -100.45,-41.79 -155.06,-40.67 -48.79,1 -82.66,11.02 -122.3,37.2 -84.15,55.58 -124.778,161.04 -101.88,259.24 26.48,113.51 126.98,190.53 241.92,192.69 111.88,-2.29 201.41,-69.89 228.01,-180.03 12.21,-50.51 10.65,-109.83 -4.32,-159.69 z m -274.69,365.63 c 10.21,0.22 20.04,1.01 26.32,1.02 15.5,0.03 30.99,0.61 46.48,1.03 2.63,0.07 5.63,-0.06 8.79,-0.22 -0.01,-5.41 0.23,-10.79 0.68,-16.2 -10.52,1.27 -21,2.18 -31.27,2.39 -17.26,-0.32 -34.16,-2.38 -50.65,-5.75 -0.3,5.92 -0.32,11.83 -0.35,17.73 z m -28.09,26.07 c -1.33,3.79 -0.73,14.13 0.02,18.1 2.94,15.59 11.53,17.58 27.62,20.13 13.91,2.19 29.24,1.35 43.29,1.8 12.97,-0.05 26.27,0.58 39.2,-0.62 13.87,-1.27 20.2,-0.62 24.45,-14.71 1.56,-5.14 3.2,-19.71 1.1,-25.3 -4.9,-13.06 -15.53,-8.97 -29.7,-9.35 -15.58,-0.41 -31.15,-1.02 -46.73,-1.14 -16.08,-0.13 -53.51,-5.17 -59.25,11.09 z m 250.69,-71.74 c 4.48,-3.37 9,-6.48 12.66,-9.37 3.27,-2.59 6.56,-5.15 9.85,-7.71 -6.18,-6.35 -12.5,-12.64 -18.19,-19.42 -4.32,4.55 -8.67,9.08 -13.39,13.37 -2.22,2.01 -4.71,3.72 -7.03,5.62 5.18,5.98 10.68,11.72 16.1,17.51 z m 9.98,34.55 c 6.66,-1.03 19.19,-14.37 24.33,-18.35 6.01,-5 14.18,-10.1 18.95,-16.34 4.98,-6.52 0.8,-14.47 -5.41,-19.34 -9.74,6.09 -18.85,14.83 -27.68,21.83 -8.15,6.45 -18.15,13.16 -24.45,21.87 3.61,5.13 9.48,11.08 14.26,10.33 z m 65.9,-227.03 c -6.7,54.81 -27.29,104.63 -62.22,145.55 5.94,7.54 13.08,14.3 19.81,21.19 3.18,-2.71 7.12,-6.87 10.96,-8.06 8.23,-2.56 13.66,4.77 18.43,10.71 5.35,6.68 11.8,14.91 8.07,23.62 -4.34,10.12 -18.62,18.75 -26.76,25.53 -9.4,7.26 -20.43,19.17 -31.64,22.96 -10.36,3.51 -17.56,-3.59 -23.58,-11.14 -4.73,-5.94 -10.44,-10.85 -7.04,-18.55 1.63,-3.68 4.35,-7.09 7.53,-10.3 -5.53,-5.95 -11.03,-11.92 -16.35,-18.04 -28.96,20.19 -63.99,32.48 -99.35,38.41 -0.51,5.92 -0.8,11.76 -0.81,17.66 5.03,0.01 9.88,0.29 13.67,1.66 11.48,4.17 11.65,9.54 12.33,22.42 0.77,14.56 2.85,39.25 -10.29,48.98 -15.41,11.4 -50.84,5.52 -68.4,5.58 -34.51,-1.1 -82.85,9.49 -84.84,-35.86 -0.4,-9.13 -3.33,-30.02 4.96,-37.23 4.93,-4.29 13.56,-6.06 23.1,-6.7 0.03,-6.49 0.04,-12.97 0.38,-19.49 0.03,-0.6 0.26,-1.05 0.4,-1.57 -80.23,-20.66 -147.62,-76.73 -179.56,-157.03 -39.13,-98.38 -14.497,-225.86 70.78,-293.6 32.09,-25.5 67.03,-47.71 107.94,-53.75 62.32,-9.2 131.4,-5.85 187.93,24.52 37.7,20.25 75.25,56.42 97.34,92.77 28.71,47.24 33.77,116.15 27.21,169.76"
         style="fill:#FF3334;fill-opacity:1;fill-rule:nonzero;stroke:none"
         id="path212" /><path
         d="m 1446.81,2033.01 c 10.93,-62.13 -10.31,-121.49 -53.01,-166.82 -28.23,-29.97 -58.17,-60.29 -99.28,-69.3 -45.15,-9.87 -89.84,-7.41 -131.18,15.68 -46.21,25.8 -97.64,67.67 -108.05,122.08 -10.86,56.78 -2.02,118.53 31.26,166.31 65.5,94.06 193.45,111.14 285.35,47.06 36.48,-28.75 66.73,-68.56 74.91,-115.01 z m -66.03,125.67 c -0.22,0.18 -0.47,0.22 -0.71,0.36 -0.26,0.23 -0.39,0.52 -0.7,0.73 -77.56,54.37 -180.5,56.06 -257.17,-2.06 -71.7,-54.35 -102.08,-151.76 -77.81,-238.61 22.72,-81.28 130.88,-147.26 212.33,-142.3 25.67,1.57 56.22,6 78.3,19.54 36.51,22.4 73.12,58.74 96.8,94.11 60.46,90.3 30.92,204.32 -51.04,268.23"
         style="fill:#FF3334;fill-opacity:1;fill-rule:nonzero;stroke:none"
         id="path214" /><path
         d="m 1234.94,1982.78 c -6.14,4.61 -4.81,17.4 -0.83,23.28 5.63,8.31 17.48,8.1 23.39,0.3 0.18,-0.23 0.42,-0.34 0.62,-0.54 0.18,-0.29 0.24,-0.59 0.47,-0.86 13.96,-16.66 -7.82,-34.06 -23.65,-22.18 z m 108.87,117.34 c -26.64,-27 -53.28,-54.01 -79.93,-81.01 -10.09,8.25 -24.14,10.02 -35.32,1.08 -11.92,-9.52 -16.87,-33.6 -5.67,-45.47 10.82,-11.46 32.5,-12.81 44.45,-2.65 11.39,9.67 11.88,24.22 5.43,36.21 26.96,27.32 53.93,54.66 80.9,81.99 6.3,6.39 -3.54,16.25 -9.86,9.85"
         style="fill:#FF3334;fill-opacity:1;fill-rule:nonzero;stroke:none"
         id="path216" /><path
         d="m 1170.14,2136.1 c -46.76,-24.94 -70.92,-71.3 -82.91,-121.25 -2.08,-8.71 11.35,-12.43 13.45,-3.7 11.18,46.62 32.73,89.57 76.49,112.91 7.92,4.22 0.89,16.26 -7.03,12.04"
         style="fill:#FF3334;fill-opacity:1;fill-rule:nonzero;stroke:none"
         id="path218" /><path
         d="m 1090.46,1982.39 c -8.96,0 -8.98,-13.94 0,-13.94 8.97,0 8.99,13.94 0,13.94"
         style="fill:#FF3334;fill-opacity:1;fill-rule:nonzero;stroke:none"
         id="path220" /><path
         d="m 1254.58,2295.39 c -0.48,6.67 -0.97,13.35 -1.46,20.02 -0.65,8.89 -14.6,8.96 -13.94,0 0.49,-6.67 0.97,-13.35 1.46,-20.02 0.66,-8.89 14.6,-8.96 13.94,0"
         style="fill:#FF3334;fill-opacity:1;fill-rule:nonzero;stroke:none"
         id="path222" /><path
         d="m 1290.45,2300.76 c -0.17,5.43 -0.35,10.87 -0.53,16.31 -0.3,8.94 -14.24,8.98 -13.94,0 0.18,-5.44 0.36,-10.88 0.54,-16.31 0.3,-8.95 14.24,-8.99 13.93,0"
         style="fill:#FF3334;fill-opacity:1;fill-rule:nonzero;stroke:none"
         id="path224" /><path
         d="m 1214.32,2295.42 c -0.91,5.97 -1.01,11.92 -0.64,17.94 0.54,8.96 -13.39,8.92 -13.94,0 -0.45,-7.3 0.04,-14.42 1.13,-21.64 1.35,-8.84 14.78,-5.09 13.45,3.7"
         style="fill:#FF3334;fill-opacity:1;fill-rule:nonzero;stroke:none"
         id="path226" /></g></g></svg>
