<?xml version="1.0" encoding="UTF-8" standalone="no"?>
<!-- Created with Inkscape (http://www.inkscape.org/) -->

<svg
   width="21.627472mm"
   height="15.786198mm"
   viewBox="0 0 21.627472 15.786198"
   version="1.1"
   id="svg5"
   xml:space="preserve"
   xmlns:inkscape="http://www.inkscape.org/namespaces/inkscape"
   xmlns:sodipodi="http://sodipodi.sourceforge.net/DTD/sodipodi-0.dtd"
   xmlns="http://www.w3.org/2000/svg"
   xmlns:svg="http://www.w3.org/2000/svg"><sodipodi:namedview
     id="namedview7"
     pagecolor="#ffffff"
     bordercolor="#999999"
     borderopacity="1"
     inkscape:showpageshadow="0"
     inkscape:pageopacity="0"
     inkscape:pagecheckerboard="0"
     inkscape:deskcolor="#d1d1d1"
     inkscape:document-units="mm"
     showgrid="false" /><defs
     id="defs2" /><g
     id="g142"
     transform="matrix(0.03527778,0,0,-0.03527778,-33.324682,113.26976)"><g
       id="g993"
       inkscape:export-filename=".\g993.svg"
       inkscape:export-xdpi="96"
       inkscape:export-ydpi="96"><path
         d="m 1540.52,2812.64 c -7.17,-11.97 -19.39,-11.4 -31.58,-11.78 -0.42,1.03 -0.85,2.05 -1.25,3.08 -6.53,16.92 -12.65,33.99 -18.91,51.01 9.1,0.17 18.2,0.05 27.33,-0.26 12.29,-0.43 21.78,0.48 25.49,-12.9 2.63,-9.53 4.25,-20.26 -1.08,-29.15 z m -78.47,-32.36 c -20.89,1.99 -26.24,8.17 -32.22,26.88 -6.01,18.83 -12.23,37.6 -18.42,56.38 -0.07,0.26 -0.15,0.49 -0.24,0.74 -2.8,8.49 -5.51,17 -8.33,25.48 -19.17,57.69 -38.6,115.33 -59.44,172.44 20.67,2.49 41.36,4.81 62.07,7.09 0.03,-0.26 -0.05,-0.47 0,-0.74 4.88,-22.86 15.51,-44.16 20.84,-67.05 5.43,-23.37 12.67,-46.27 20.18,-69.04 8.15,-24.72 16.88,-49.26 25.82,-73.71 0,0 0,-0.01 0.01,-0.02 0.63,-1.72 1.23,-3.45 1.86,-5.17 5.5,-14.97 25.4,-46.89 23.68,-62.63 -1.42,-13.11 -23.22,-11.86 -35.81,-10.65 z m -427.81,18.36 c -17.57,0.16 -36.49,-1.63 -53.947,0.56 -20.613,2.58 -20.129,3.94 -21.18,19.46 -0.847,12.66 -1.621,18.47 8.446,25.11 18.386,12.15 66.381,6.8 88.701,7.76 114.47,4.92 229.08,0.79 343.6,2.74 1.04,-3.17 2.12,-6.34 3.17,-9.52 3.79,-11.59 6.92,-31.94 12.63,-48.89 -127.14,0.82 -254.28,1.66 -381.42,2.78 z m 38.03,-19.46 c -6.4,-1.02 -13.68,-0.4 -20.13,-0.59 -4.57,-0.13 -37.61,-3.75 -36.78,4.3 0.06,0.68 -0.1,1.21 -0.19,1.78 21.14,-0.44 42.28,-0.85 63.43,-1.12 -0.12,-3.22 -1.51,-3.6 -6.33,-4.37 z m 42.22,290.49 c -5.54,23.33 77.66,21.96 95.61,23.81 36.99,3.81 73.96,7.55 110.99,10.96 32.92,3.02 65.59,8.12 98.64,9.69 15.36,0.73 30.58,1.52 45.87,3.23 8.87,0.99 43.84,10.78 52.05,4.16 21.01,-16.94 -15.91,-26.51 -25.87,-27.95 -18.39,-2.67 -36.88,-4.76 -55.34,-6.86 -34.01,-3.86 -68.06,-7.39 -102.03,-11.6 -37.77,-4.73 -75.6,-8.68 -113.55,-11.69 -19.57,-1.55 -101.05,-16.16 -106.37,6.25 z m 340.59,117.75 c 1.53,1.08 9.53,9.12 11.78,8.63 3.98,-0.85 7.71,-13.17 9.85,-17.35 7.24,-14.09 12.11,-28.63 16.28,-43.74 -5.19,-0.74 -10.52,-1.62 -15.78,-2.28 -38.88,-4.82 -78.23,-7.85 -117.46,-11.04 30.55,23.73 63.76,43.41 95.33,65.78 z m 101.23,-348.07 c -2.14,11.15 -5.85,21.85 -17.1,26.56 -7.18,3 -15.48,2.45 -23.1,2.71 -10.84,0.38 -21.63,0.57 -32.45,0.15 -2.56,7.05 -5.32,14.03 -7.83,21.1 -11.28,31.79 -22.43,63.76 -31.28,96.32 -7.65,28.12 -19.1,56.46 -25.29,84.72 21.31,2.38 42.63,4.76 63.9,7.56 20.49,2.71 56.23,1.15 54.21,29.06 -1.77,24.41 -14.25,29.36 -30.24,28.84 -5.13,20.04 -17.07,76.94 -41.86,74.34 -15.02,-1.57 -38.19,-25.37 -50.52,-33.42 -26.74,-17.47 -53.22,-35.1 -77.64,-55.74 -0.72,-0.61 -1.16,-1.28 -1.53,-1.96 -6.89,-0.58 -13.8,-1.13 -20.67,-1.76 -55.32,-5.06 -110.86,-9.73 -166.03,-16.1 -22.88,-2.65 -52.65,-1.55 -49.48,-31 3.17,-29.43 25.57,-27.2 49.1,-25.98 60.53,3.13 120.88,8.45 181.02,15.86 0.07,-0.51 0.02,-0.96 0.22,-1.51 23.09,-63.19 44.48,-127.02 65.5,-190.93 -135.59,-2.13 -271.47,3.98 -406.81,-6.81 -36.61,-2.92 -47.649,-9.43 -42.664,-48.88 3.109,-24.61 16,-26.69 39.906,-27.29 5.457,-0.13 10.914,-0.16 16.358,-0.29 -0.25,-0.63 -0.53,-1.24 -0.61,-2.01 -2.682,-26.19 34.65,-18.7 50.72,-18.24 9.13,0.27 24.72,-2.53 32.98,1.84 5.6,2.96 7.17,10.4 7.29,16.82 109.77,-1.26 219.63,-0.74 329.35,-1.43 2.52,-4.56 5.33,-8.55 8.77,-11.08 13.85,-10.22 62.49,-9.15 75.38,-1.15 8.02,4.98 9.18,10.93 7.84,17.46 13.69,0.55 26.05,1.99 35.59,13.93 9.14,11.44 9.59,24.54 6.97,38.31"
         style="fill:#ff9C8C;fill-opacity:1;fill-rule:nonzero;stroke:none"
         id="path374" /><path
         d="m 1397.13,3016.29 c -2.96,8.4 -16.43,4.78 -13.44,-3.71 20.65,-58.44 38.58,-117.8 60.18,-175.91 3.1,-8.33 16.57,-4.73 13.44,3.7 -21.59,58.12 -39.53,117.47 -60.18,175.92"
         style="fill:#ff9C8C;fill-opacity:1;fill-rule:nonzero;stroke:none"
         id="path376" /><path
         d="m 1220.14,2977.25 c 8.97,0.01 8.98,13.94 0,13.94 -35.19,-0.03 -70.36,1.32 -105.54,1.39 -8.97,0.02 -8.99,-13.92 0,-13.94 35.18,-0.06 70.35,-1.41 105.54,-1.39"
         style="fill:#ff9C8C;fill-opacity:1;fill-rule:nonzero;stroke:none"
         id="path378" /><path
         d="m 1045.23,2977.95 c 8.03,-0.14 16.06,0.13 24.09,0 8.98,-0.16 8.98,13.78 0,13.93 -8.03,0.13 -16.06,-0.14 -24.09,0 -8.97,0.15 -8.98,-13.79 0,-13.93"
         style="fill:#ff9C8C;fill-opacity:1;fill-rule:nonzero;stroke:none"
         id="path380" /><path
         d="m 1042.35,2919.36 c 50.59,2.84 101.94,-0.2 152.68,0.84 8.95,0.19 8.98,14.12 0,13.94 -50.74,-1.04 -102.09,1.99 -152.68,-0.85 -8.92,-0.5 -8.98,-14.44 0,-13.93"
         style="fill:#ff9C8C;fill-opacity:1;fill-rule:nonzero;stroke:none"
         id="path382" /><path
         d="m 1295.87,2918.76 c 8.94,-0.69 8.9,13.25 0,13.93 -20.12,1.55 -40.3,0.12 -60.44,0.37 -8.98,0.12 -8.98,-13.82 0,-13.94 20.14,-0.25 40.32,1.18 60.44,-0.36"
         style="fill:#ff9C8C;fill-opacity:1;fill-rule:nonzero;stroke:none"
         id="path384" /><path
         d="m 979.727,2919.25 c 8.418,0.76 17.187,0.76 25.613,0 8.92,-0.81 8.87,13.13 0,13.94 -8.426,0.76 -17.192,0.76 -25.613,0 -8.864,-0.79 -8.946,-14.73 0,-13.94"
         style="fill:#ff9C8C;fill-opacity:1;fill-rule:nonzero;stroke:none"
         id="path386" /></g></g></svg>
