<?xml version="1.0" encoding="UTF-8" standalone="no"?>
<!-- Created with Inkscape (http://www.inkscape.org/) -->

<svg
   width="13.999908mm"
   height="21.657562mm"
   viewBox="0 0 13.999908 21.657562"
   version="1.1"
   id="svg5"
   xml:space="preserve"
   xmlns:inkscape="http://www.inkscape.org/namespaces/inkscape"
   xmlns:sodipodi="http://sodipodi.sourceforge.net/DTD/sodipodi-0.dtd"
   xmlns="http://www.w3.org/2000/svg"
   xmlns:svg="http://www.w3.org/2000/svg"><sodipodi:namedview
     id="namedview7"
     pagecolor="#ffffff"
     bordercolor="#999999"
     borderopacity="1"
     inkscape:showpageshadow="0"
     inkscape:pageopacity="0"
     inkscape:pagecheckerboard="0"
     inkscape:deskcolor="#d1d1d1"
     inkscape:document-units="mm"
     showgrid="false" /><defs
     id="defs2" /><g
     id="g142"
     transform="matrix(0.03527778,0,0,-0.03527778,-137.41056,49.330324)"><g
       id="g967"><path
         d="m 4274.86,904.168 c -5.01,-30.188 -12.6,-81.777 -42.65,-97.859 -21.92,-11.739 -58.44,-6.707 -81.89,-6.239 -56.25,1.129 -119.73,-8.429 -174.83,2.578 -51.49,10.313 -62.26,56.43 -63.92,103.262 37,-10.058 77.3,-2.34 115.12,-1.57 45.72,0.941 91.35,-0.559 136.94,-3.879 3.98,-0.301 6.68,3.43 6.97,6.961 2.86,34.348 -3.01,68.969 -1.13,103.638 2.24,41.54 6.31,82.34 3.1,123.98 -0.28,3.73 -2.96,7.01 -6.96,6.97 -83.95,-0.86 -167.41,-0.45 -251.37,-0.01 -0.1,19.02 -0.46,39.54 4.98,57.47 9.17,30.16 34.46,45.29 57.81,63.38 41.35,2.16 83.84,1.16 125.02,0.23 26.09,-0.59 51.97,-1.96 78.08,-1.14 9.78,0.31 21.42,-0.5 32.75,-0.43 41.57,-17.6 59.28,-48.65 62.54,-90.19 3.41,-43.41 2.3,-87.26 1.92,-130.76 -0.4,-44.599 4.81,-92.33 -2.48,-136.392 z m -181.29,221.682 c 14.59,0.31 46.07,7.71 59.64,2.03 6.01,2.15 8.16,0.11 6.45,-6.11 0.49,-8.49 0.7,-17.01 0.65,-25.52 -0.04,-14.28 -0.9,-28.52 -1.85,-42.75 -2.08,-31.18 -5.23,-62.48 -3.64,-93.77 0.45,-8.789 5.06,-24.121 2.89,-32.812 -4.27,-17.129 -16.21,-10.887 -33.16,-10.047 -34.76,1.731 -69.59,2.149 -104.38,1.27 -35.59,-0.891 -74.37,-8.461 -108.86,2.199 -0.04,15.832 0.58,31.351 0.66,45.14 0.29,54.19 1.84,108.36 2.2,162.55 59.85,-0.38 119.59,-3.43 179.4,-2.18 z m -148.41,215.61 c 0.2,7.06 -1.72,23.19 1.86,29.67 9.25,16.75 51.99,12.92 67.15,13.16 36.91,0.58 73.87,-0.16 110.77,-0.47 29.22,-0.25 70.85,5.02 98.61,-4.64 22.02,-7.68 19.36,-21.38 19.44,-39.7 0.05,-12.4 2.62,-27.36 0.23,-39.42 -4.46,-22.43 -18.54,-22.56 -38.64,-23.3 -15.59,-0.55 -31.21,-1.41 -46.82,-1.46 -64.47,-0.21 -129.5,5.4 -193.9,0.86 -28.05,-1.14 -19.26,46.58 -18.7,65.3 z m 339.15,-132.52 c -5.71,21.72 -26.18,41.79 -47.28,55.18 0.64,0.17 1.33,0.28 1.96,0.48 27.77,8.74 18.08,47.6 17.97,70.49 -0.22,38.86 3.52,54.78 -39.22,58.53 -50.96,4.47 -101.96,4.19 -153.07,4.55 -29.91,0.22 -59.83,0.57 -89.7,-1.49 -11.32,-0.78 -30.33,0.8 -38.47,-9.74 -12.67,-16.39 -5.72,-63.43 -5.8,-81.81 -0.13,-24.52 1.16,-40.23 23.55,-42.59 -26.25,-20.91 -47.33,-41.31 -51.93,-78.47 -6.32,-51.04 -3.15,-105.21 -3.8,-156.54 -1.01,-79.421 -27.21,-225.659 83.11,-239.792 54.94,-7.039 113.3,-0.5 168.69,-1.609 36.59,-0.731 82.86,-7.231 107.89,25.371 28.67,37.32 33.77,96.961 32.9,142.289 -0.85,44.492 0.44,89.001 0.45,133.491 0.02,39.37 2.89,83.17 -7.25,121.66"
         style="fill:#FF3334;fill-opacity:1;fill-rule:nonzero;stroke:none"
         id="path304" /><path
         d="m 3987.85,1307.63 c -0.79,14.82 -1.08,29.63 -0.88,44.46 0.11,8.97 -13.82,8.97 -13.94,0 -0.19,-14.83 0.1,-29.64 0.88,-44.46 0.47,-8.91 14.41,-8.97 13.94,0"
         style="fill:#FF3334;fill-opacity:1;fill-rule:nonzero;stroke:none"
         id="path306" /><path
         d="m 4212.85,1307.63 c -0.79,14.82 -1.08,29.63 -0.88,44.46 0.11,8.97 -13.82,8.97 -13.94,0 -0.19,-14.83 0.1,-29.64 0.88,-44.46 0.47,-8.91 14.41,-8.97 13.94,0"
         style="fill:#FF3334;fill-opacity:1;fill-rule:nonzero;stroke:none"
         id="path308" /><path
         d="m 4044.1,1307.63 c -0.79,14.82 -1.08,29.63 -0.88,44.46 0.11,8.97 -13.82,8.97 -13.94,0 -0.19,-14.83 0.1,-29.64 0.88,-44.46 0.47,-8.91 14.41,-8.97 13.94,0"
         style="fill:#FF3334;fill-opacity:1;fill-rule:nonzero;stroke:none"
         id="path310" /><path
         d="m 4156.6,1307.63 c -0.79,14.82 -1.08,29.63 -0.88,44.46 0.11,8.97 -13.82,8.97 -13.94,0 -0.19,-14.83 0.1,-29.64 0.88,-44.46 0.47,-8.91 14.41,-8.97 13.94,0"
         style="fill:#FF3334;fill-opacity:1;fill-rule:nonzero;stroke:none"
         id="path312" /><path
         d="m 4100.35,1307.63 c -0.79,14.82 -1.08,29.63 -0.88,44.46 0.11,8.97 -13.82,8.97 -13.94,0 -0.19,-14.83 0.1,-29.64 0.88,-44.46 0.47,-8.91 14.41,-8.97 13.94,0"
         style="fill:#FF3334;fill-opacity:1;fill-rule:nonzero;stroke:none"
         id="path314" /><path
         d="m 3957.24,1014.68 c 1.47,4.79 5.13,9.53 7.6,13.81 4.34,7.56 9.11,14.72 13.98,21.81 15.1,-13.15 31.62,-24.25 49.56,-33.15 -7.56,-9.42 -15.28,-18.709 -22.52,-28.009 -8.67,-11.161 -28.32,-23.45 -41.26,-11.2 -6.37,6.028 -9.77,28.859 -7.36,36.739 z m 90,77.64 c 15.8,-10.19 15.34,-25.64 6.35,-40.36 -4.95,-8.11 -10.65,-15.91 -16.54,-23.62 -18.24,8.85 -35.02,19.93 -50.2,33.38 3.41,4.73 6.78,9.47 10.24,14.25 12.15,16.18 30.29,29.18 50.15,16.35 z m 64.71,-71.67 c -19.88,-1.57 -39.5,-0.58 -59.07,3.08 13.42,17.59 23.78,36.84 20.11,55.65 36.99,15.5 41.9,-22.2 38.96,-58.73 z m -8.41,-52.541 c -8.92,-39.019 -48.32,-33.289 -54.71,5.641 -1.86,11.359 -0.37,24.871 0.41,36.51 20.28,-3.84 40.63,-5.11 61.23,-3.62 -2.13,-16.519 -5.27,-31.23 -6.93,-38.531 z m -117.46,-9.82 c 15.89,1.582 23.86,13.52 32.86,25.152 4.31,5.559 9.85,11.797 15.75,18.489 -1.75,-22.578 -3.63,-51.719 14.07,-66.418 20.56,-17.071 57.42,-9.41 65.98,16.519 5.37,16.258 5.28,35.86 7.36,52.689 2.4,19.29 9.89,44.05 3.11,63.14 -8.97,25.28 -34.28,32.52 -57,24.28 -8.36,14.17 -25.82,23.05 -42.25,21.6 -19.7,-1.76 -30.05,-16.27 -40.91,-30.74 -17.16,-23.7 -56.58,-64.5 -44.67,-96.77 6.39,-17.289 27.33,-29.781 45.7,-27.941"
         style="fill:#FF3334;fill-opacity:1;fill-rule:nonzero;stroke:none"
         id="path316" /><path
         d="m 4178.27,1241.23 c -8.77,1.55 -12.53,-11.88 -3.71,-13.44 22.12,-3.92 42.15,-14.54 53.32,-34.84 10.5,-19.08 8.64,-42.68 9.59,-63.8 0.4,-8.94 14.35,-8.99 13.94,0 -1.19,26.16 0.29,53.66 -14.9,76.35 -13.46,20.11 -34.86,31.59 -58.24,35.73"
         style="fill:#FF3334;fill-opacity:1;fill-rule:nonzero;stroke:none"
         id="path318" /><path
         d="m 4244.32,1106.32 c -8.97,0 -8.98,-13.93 0,-13.93 8.97,0 8.98,13.93 0,13.93"
         style="fill:#FF3334;fill-opacity:1;fill-rule:nonzero;stroke:none"
         id="path320" /></g></g></svg>
