<?xml version="1.0" encoding="UTF-8" standalone="no"?>
<!-- Created with Inkscape (http://www.inkscape.org/) -->

<svg
   width="15.769806mm"
   height="20.345657mm"
   viewBox="0 0 15.769806 20.345657"
   version="1.1"
   id="svg5"
   xml:space="preserve"
   xmlns:inkscape="http://www.inkscape.org/namespaces/inkscape"
   xmlns:sodipodi="http://sodipodi.sourceforge.net/DTD/sodipodi-0.dtd"
   xmlns="http://www.w3.org/2000/svg"
   xmlns:svg="http://www.w3.org/2000/svg"><sodipodi:namedview
     id="namedview7"
     pagecolor="#ffffff"
     bordercolor="#999999"
     borderopacity="1"
     inkscape:showpageshadow="0"
     inkscape:pageopacity="0"
     inkscape:pagecheckerboard="0"
     inkscape:deskcolor="#d1d1d1"
     inkscape:document-units="mm"
     showgrid="false" /><defs
     id="defs2" /><g
     id="g142"
     transform="matrix(0.03527778,0,0,-0.03527778,-69.676581,81.432145)"><g
       id="g916"><path
         d="m 2349.58,1748.78 c -83.36,-4.02 -167.47,0.23 -250.98,-0.36 -19.43,-0.13 -39.44,-1.45 -58.83,-0.01 -39.05,2.91 -45.54,28.7 -46.79,58.09 32.31,1.04 64.51,4.47 96.85,2.58 37.23,-2.2 71.21,-2.42 108.36,0.39 33.08,2.5 67.66,-0.12 101.01,0.54 20.14,0.39 40.1,-2.25 60.22,-2.08 15.72,0.13 32.4,4 48.16,3.11 0.03,-6.73 -0.04,-13.46 -0.37,-20.16 -1.75,-36.15 -25.89,-40.58 -57.63,-42.1 z m -317.44,421.2 c 11.73,11.94 34.72,20.79 44.9,33.6 82.05,-1.57 164.14,-0.92 246.19,-2.5 41.98,-22.36 71.71,-48.64 81.5,-97.7 1.17,-5.87 1.82,-11.86 2.16,-17.9 -136.55,15.11 -277.02,3.99 -414.19,0.95 4.61,30.39 15.37,59.04 39.44,83.55 z m 101.45,121.84 c 29.75,0.17 59.5,-0.77 89.26,-0.58 24.81,0.15 49.62,0.86 74.44,1.23 20.57,0.31 28.54,4.15 33.5,-16.01 2.34,-9.49 1.84,-19.75 -5.97,-24.83 -5.04,-3.27 -30.53,-1.02 -36.69,-1.05 -13.45,-0.06 -26.88,0.34 -40.3,0.89 -27.36,1.11 -54.6,2.03 -81.98,1.79 -30.05,-0.26 -60.08,-0.9 -90.13,-0.97 -5.27,-0.01 -8.75,0.16 -10.96,0.32 -2.4,9.89 0.36,28.27 1.29,38.55 11.67,6.11 56.13,0.59 67.54,0.66 z m -51.55,-74.38 c 0.62,6.96 -0.21,14.65 -0.73,21.54 78.84,3.51 158,-4.21 236.81,-1.26 -0.01,-7.55 -0.01,-15.09 0,-22.64 -78.68,1.43 -157.39,0.95 -236.08,2.36 z m -89.45,-389.07 c -0.57,53.53 -1.22,107.07 -2.23,160.59 -0.53,27.8 -1.95,56.18 0.61,83.49 137.82,2.98 278.99,14.29 416.21,-0.93 -0.16,-15.51 -1.59,-31.19 -1.67,-46.34 -0.14,-25.38 -0.14,-50.09 1.18,-75.51 2.02,-38.95 -0.45,-78.15 0.52,-117.16 0.06,-2.49 0.08,-4.99 0.14,-7.49 -13.87,0.72 -26.86,-2.44 -41.14,-3.14 -20.16,-1 -40.3,2.18 -60.45,2.12 -35.27,-0.1 -72.58,2.06 -107.57,-0.6 -34.97,-2.65 -66.98,-3.18 -102.07,-0.81 -34.62,2.35 -68.9,-1.13 -103.46,-2.17 -0.02,2.64 -0.04,5.3 -0.07,7.95 z m 428.4,115.95 c -1.1,30.32 -2.22,60.21 -1.94,90.53 0.3,32.79 4.04,61.96 -7.27,93.51 -7.4,20.65 -17.76,42.24 -34.81,56.67 -11.4,9.65 -33.74,14.59 -42.54,25.89 -3.11,4 -3.19,11.1 -2.85,18.52 5.71,-0.43 11.49,-0.58 17.14,-0.23 5.16,0.32 10.1,2.73 10.57,8.46 0.64,7.91 -6.52,10.02 -14.16,10.2 0.08,16.67 2.82,37.37 -1.61,53.22 -0.65,2.31 -2.52,4.26 -4.86,4.86 -19.95,5.1 -45.31,0.41 -65.94,0.05 -31.53,-0.54 -62.98,-0.91 -94.5,-0.53 -27.62,0.32 -55.2,-0.01 -82.82,-0.1 -13.62,-0.04 -30.67,4.79 -40.96,-5.56 -0.59,-0.6 -0.91,-1.24 -1.23,-1.87 -0.04,-0.06 -0.08,-0.1 -0.11,-0.16 -0.39,-0.82 -0.57,-1.63 -0.6,-2.45 -0.01,-0.17 -0.1,-0.28 -0.1,-0.45 -0.61,-15.16 -0.01,-30.21 -0.02,-45.31 -7.66,-0.1 -14.19,-2.19 -12.91,-10.14 0.91,-5.71 6.47,-7 11.38,-6.81 5.82,0.22 11.6,0.83 17.38,0.3 0.85,-7.8 1.8,-16.25 1.43,-17.04 -0.06,-0.13 -0.21,-0.26 -0.28,-0.39 -0.03,-0.03 -0.05,-0.07 -0.07,-0.1 -3.16,-5.25 -17.29,-10.97 -22.04,-14.48 -21.06,-15.56 -38.82,-33.97 -51.14,-57.23 -27.61,-52.11 -20.5,-110.28 -19.48,-166.98 0.58,-32.64 1.04,-65.27 1.44,-97.91 0.37,-30.51 -3.22,-64.03 1.59,-94.14 7.21,-45.15 43.98,-50.25 83.36,-50.29 47.03,-0.05 94.09,1.52 141.11,0.83 56.26,-0.81 116.82,-8.25 172.57,0.96 39.31,6.49 44.26,32.41 44.73,66.81 0.64,46.86 1.25,94.54 -0.46,141.36"
         style="fill:#FF3334;fill-opacity:1;fill-rule:nonzero;stroke:none"
         id="path228" /><path
         d="m 2091.46,2264.26 c -0.07,5.22 0,10.43 0.24,15.64 0.4,8.97 -13.53,8.95 -13.94,0 -0.24,-5.21 -0.31,-10.42 -0.23,-15.64 0.13,-8.96 14.07,-8.98 13.93,0"
         style="fill:#FF3334;fill-opacity:1;fill-rule:nonzero;stroke:none"
         id="path230" /><path
         d="m 2204.74,2264.26 c -0.08,5.22 0,10.43 0.23,15.64 0.41,8.97 -13.52,8.95 -13.93,0 -0.24,-5.21 -0.31,-10.42 -0.24,-15.64 0.14,-8.96 14.08,-8.98 13.94,0"
         style="fill:#FF3334;fill-opacity:1;fill-rule:nonzero;stroke:none"
         id="path232" /><path
         d="m 2129.22,2264.26 c -0.08,5.22 0,10.43 0.24,15.64 0.4,8.97 -13.53,8.95 -13.94,0 -0.24,-5.21 -0.32,-10.42 -0.23,-15.64 0.13,-8.96 14.07,-8.98 13.93,0"
         style="fill:#FF3334;fill-opacity:1;fill-rule:nonzero;stroke:none"
         id="path234" /><path
         d="m 2166.98,2264.26 c -0.08,5.22 0,10.43 0.24,15.64 0.4,8.97 -13.53,8.95 -13.94,0 -0.23,-5.21 -0.31,-10.42 -0.23,-15.64 0.13,-8.96 14.07,-8.98 13.93,0"
         style="fill:#FF3334;fill-opacity:1;fill-rule:nonzero;stroke:none"
         id="path236" /><path
         d="m 2242.5,2264.26 c -0.08,5.22 -0.01,10.43 0.24,15.64 0.4,8.97 -13.54,8.95 -13.95,0 -0.23,-5.21 -0.31,-10.42 -0.22,-15.64 0.13,-8.96 14.07,-8.98 13.93,0"
         style="fill:#FF3334;fill-opacity:1;fill-rule:nonzero;stroke:none"
         id="path238" /><path
         d="m 2280.26,2264.26 c -0.08,5.22 0,10.43 0.23,15.64 0.41,8.97 -13.53,8.95 -13.93,0 -0.24,-5.21 -0.32,-10.42 -0.24,-15.64 0.14,-8.96 14.07,-8.98 13.94,0"
         style="fill:#FF3334;fill-opacity:1;fill-rule:nonzero;stroke:none"
         id="path240" /><path
         d="m 2318.02,2264.26 c -0.09,5.22 -0.01,10.43 0.24,15.64 0.4,8.97 -13.54,8.95 -13.95,0 -0.23,-5.21 -0.31,-10.42 -0.22,-15.64 0.13,-8.96 14.07,-8.98 13.93,0"
         style="fill:#FF3334;fill-opacity:1;fill-rule:nonzero;stroke:none"
         id="path242" /><path
         d="m 2112.51,1868.17 c 2.83,-7.32 13.05,-6.23 13.68,1.85 3.82,48.59 6.81,97.22 8.96,145.9 0.4,8.98 -13.54,8.96 -13.94,0 -1.63,-36.96 -3.9,-73.88 -6.49,-110.79 -11.16,37.61 -17.78,76.24 -23.97,115.17 -1.08,6.81 -12.1,6.49 -13.44,0 -7.44,-36.27 -12.83,-74.3 -21.3,-110.96 -3.26,36.32 -6.38,72.65 -9.91,108.94 -0.86,8.85 -14.81,8.93 -13.94,0 4.81,-49.4 8.69,-98.87 13.49,-148.26 0.75,-7.63 11.2,-9.7 13.69,-1.85 11.26,35.43 17.62,73.35 24.27,110.59 6.69,-37.6 15.03,-74.69 28.9,-110.59"
         style="fill:#FF3334;fill-opacity:1;fill-rule:nonzero;stroke:none"
         id="path244" /><path
         d="m 2168.75,1874.04 c -3.65,21.71 -5.89,43.4 -7.01,65.15 6.85,-0.21 13.82,0.53 20.71,0.24 7.83,-0.33 15.65,-0.81 23.49,-0.92 0.79,-22.64 1.9,-45.28 3.45,-68.15 0.6,-8.91 14.55,-8.98 13.93,0 -3.29,48.46 -4.88,95.88 -4.69,144.42 0.03,8.97 -13.91,8.99 -13.94,0 -0.08,-20.94 0.32,-41.62 0.9,-62.32 -7.72,0.12 -15.42,0.57 -23.14,0.91 -7.05,0.3 -14.18,-0.5 -21.17,-0.25 -0.54,20.22 -0.21,40.47 1.36,60.84 0.69,8.95 -13.25,8.9 -13.94,0 -3.73,-48.27 -1.42,-95.91 6.62,-143.63 1.48,-8.83 14.91,-5.08 13.43,3.71"
         style="fill:#FF3334;fill-opacity:1;fill-rule:nonzero;stroke:none"
         id="path246" /><path
         d="m 2239.22,1874.3 c 6.44,-21.49 33.05,-16.99 51.4,-13.84 8.82,1.5 5.08,14.94 -3.71,13.43 -23.99,-4.1 -30.48,1.53 -35.73,25.08 -2.39,10.66 -1.51,23.19 -2.02,34.03 11.58,-1.04 23.16,-1.44 34.8,-0.9 8.92,0.42 8.97,14.36 0,13.94 -11.81,-0.56 -23.56,-0.15 -35.29,0.94 -0.81,20.17 -1.28,40.36 -1.43,60.55 12.24,-0.18 24.47,-0.37 36.71,-0.54 8.97,-0.14 8.97,13.8 0,13.93 -13.96,0.21 -27.91,0.41 -41.86,0.62 -2.34,0.04 -4.04,-0.91 -5.16,-2.3 -2.09,-0.98 -3.72,-2.9 -3.71,-5.93 0.11,-24.8 0.62,-49.58 1.74,-74.35 0.89,-19.69 -1.48,-45.55 4.26,-64.66"
         style="fill:#FF3334;fill-opacity:1;fill-rule:nonzero;stroke:none"
         id="path248" /><path
         d="m 2329.91,1931.92 c 0.17,-0.46 0.51,-0.82 0.77,-1.24 -0.14,-20.24 0.85,-40.4 3.17,-60.53 1.02,-8.81 14.96,-8.9 13.94,0 -2.39,20.6 -3.4,41.22 -3.2,61.96 5.7,7.57 6.97,19.7 9.28,28.14 4.94,17.97 9.4,36.07 13.51,54.24 1.97,8.73 -11.47,12.46 -13.44,3.7 -2.97,-13.12 -6.1,-26.21 -9.49,-39.23 -1.18,-4.55 -3.44,-19.24 -6.5,-29.38 -8.64,21.93 -17.21,43.88 -25.48,65.96 -3.1,8.32 -16.59,4.72 -13.43,-3.71 10,-26.75 20.29,-53.39 30.87,-79.91"
         style="fill:#FF3334;fill-opacity:1;fill-rule:nonzero;stroke:none"
         id="path250" /><path
         d="m 2031.02,2106.05 c 5.65,21.24 20.44,39 40.87,47.54 8.15,3.4 4.57,16.89 -3.71,13.43 -25.03,-10.46 -43.58,-30.9 -50.59,-57.27 -2.31,-8.67 11.13,-12.37 13.43,-3.7"
         style="fill:#FF3334;fill-opacity:1;fill-rule:nonzero;stroke:none"
         id="path252" /><path
         d="m 2087.53,2161.02 c 8.96,0 8.98,13.93 0,13.93 -8.97,0 -8.99,-13.93 0,-13.93"
         style="fill:#FF3334;fill-opacity:1;fill-rule:nonzero;stroke:none"
         id="path254" /></g></g></svg>
