<?xml version="1.0" encoding="UTF-8" standalone="no"?>
<!-- Created with Inkscape (http://www.inkscape.org/) -->

<svg
   width="21.554398mm"
   height="15.623032mm"
   viewBox="0 0 21.554398 15.623032"
   version="1.1"
   id="svg5"
   xml:space="preserve"
   xmlns:inkscape="http://www.inkscape.org/namespaces/inkscape"
   xmlns:sodipodi="http://sodipodi.sourceforge.net/DTD/sodipodi-0.dtd"
   xmlns="http://www.w3.org/2000/svg"
   xmlns:svg="http://www.w3.org/2000/svg"><sodipodi:namedview
     id="namedview7"
     pagecolor="#ffffff"
     bordercolor="#999999"
     borderopacity="1"
     inkscape:showpageshadow="0"
     inkscape:pageopacity="0"
     inkscape:pagecheckerboard="0"
     inkscape:deskcolor="#d1d1d1"
     inkscape:document-units="mm"
     showgrid="false" /><defs
     id="defs2" /><g
     id="g142"
     transform="matrix(0.03527778,0,0,-0.03527778,1.0196747e-5,46.35763)"><g
       id="g1006"><path
         d="m 556.652,947.379 c -34.691,-19.809 -68.265,-39.5 -103.957,-57.199 1.258,24.031 3.168,48.031 3.778,72.082 44.925,27.679 95.98,42.708 140.386,71.038 -0.25,-15.92 -0.617,-31.84 -0.472,-47.761 0.215,-23.809 -20.813,-27.359 -39.735,-38.16 z m -308.011,29.562 c 8.539,13.09 14.644,28.249 19.586,44.549 8.168,-7.66 16.39,-15.26 24.648,-22.83 -14.648,-7.441 -29.426,-14.609 -44.234,-21.719 z M 41.1719,1008.27 c -50.06643,65.05 -39.82424,195.99 40.8203,234.99 5.3789,2.6 10.9844,4.72 16.7187,6.46 0.5586,0.01 1.086,-0.07 1.7031,0.08 2.559,0.64 5.262,1.4 7.887,2.09 39.207,8.5 83.133,-1.65 112.101,-29.28 24.86,-23.7 44.493,-55.19 66.571,-81.53 50.511,-60.27 103.351,-118.53 155.625,-177.279 -0.547,-23.821 -2.434,-47.59 -3.727,-71.391 -58.793,45.93 -115.031,95.57 -169.242,146.77 -1.129,1.06 -2.352,1.51 -3.574,1.72 -2.813,0.86 -5.91,0.22 -7.364,-3.13 l -0.007,-0.01 c -0.098,-0.21 -0.067,-0.43 -0.141,-0.64 -0.191,-0.35 -0.309,-0.7 -0.434,-1.07 -0.043,0.02 -0.082,0.04 -0.121,0.06 -14.093,-52.43 -43.64,-94.2 -104.371,-91.501 -40.39,1.782 -88.574,32.641 -112.4451,63.661 z m 83.5621,284.95 c 3.403,6.9 17.09,7.48 23.219,6.5 8.121,-1.29 14.555,-9.11 19.008,-16.22 -10.984,-3.28 -21.738,-6.55 -32.195,-9.67 -0.348,0.65 -0.711,1.3 -1.344,1.9 -4.395,4.1 -12.09,10.59 -8.688,17.49 z m 281.368,-29.87 c 72.324,-60.65 131.406,-140.12 187.91,-215.32 -22.852,-15.25 -46.989,-26.73 -72.399,-37.56 -10.957,-4.67 -21.976,-9.2 -32.742,-14.31 -7.445,-3.531 -31.437,-21.601 -38.961,-19.648 -11.019,2.867 -31.355,35.108 -39.051,43.728 -16.632,18.63 -33.234,37.31 -49.726,56.07 -33.106,37.65 -66.063,75.54 -97.207,114.84 -23.68,29.87 -43.977,57.36 -81.617,70.21 -7.403,2.52 -14.528,4.3 -21.536,5.74 82.579,24.88 178.743,52.07 245.329,-3.75 z m 204.859,-216.98 c 0.027,0.73 -0.141,1.41 -0.41,2.11 -0.133,0.39 -0.258,0.78 -0.449,1.13 -0.039,0.04 -0.032,0.1 -0.063,0.15 -32.984,43.87 -66.715,87.21 -102.574,128.77 -32.461,37.62 -67.727,82.11 -110.035,108.94 -61.895,39.25 -143.145,21.47 -216.68,0.08 -0.094,0.18 -0.078,0.36 -0.184,0.54 -11.105,19.17 -27.945,30.68 -50.695,24.14 -9.351,-2.68 -18.301,-9.3 -20.605,-19.34 -2.02,-8.8 4.164,-16.9 10.355,-23.18 -134.9921,-13.09 -167.3437,-244.13 -36.6522,-314.042 38.8752,-20.797 72.5702,-31.93 116.1722,-17.27 1.98,0.661 3.625,1.602 5.496,2.352 1.078,-0.012 2.191,0.16 3.355,0.762 31.571,16.179 63.953,30.687 95.528,46.886 0.097,0.043 0.136,0.133 0.23,0.18 44.48,-40.379 90.336,-79.387 137.863,-115.988 2.742,-2.11 5.438,-1.57 7.34,0.148 54.457,25.981 103.848,59.922 158.586,85.211 2.078,0.961 3.563,3.781 3.445,6.012 -1.421,27.41 -0.175,54.859 0,82.289 0,0.05 -0.019,0.07 -0.023,0.12"
         style="fill:#ff9C8C;fill-opacity:1;fill-rule:nonzero;stroke:none"
         id="path346" /><path
         d="m 389.578,1235.48 c 11.508,1.15 20.668,-8.13 28.395,-16.77 -27.778,-11.77 -57.008,-18.81 -84.961,-30.2 -4.446,-1.8 -17.692,-10.12 -21.399,-9.24 -3.867,0.93 -12.078,12.12 -17.937,20.26 22.933,10.54 46.898,17.99 70.711,26.38 7.593,2.68 17.379,8.77 25.191,9.57 z M 276.98,1199.43 c 0.024,-0.04 0.051,-0.09 0.075,-0.13 0.281,-0.64 0.535,-1.29 1.05,-1.89 16.008,-18.84 21.805,-37.16 46.293,-27.8 36.09,13.78 73.805,24.06 108.852,40.45 4.184,1.96 4.281,7.96 1.41,10.94 -18.144,18.8 -26.351,36.52 -51.41,26.98 -34.07,-12.96 -69.473,-22.93 -102.285,-38.98 -0.117,-0.05 -0.231,-0.1 -0.348,-0.16 -0.359,-0.17 -0.738,-0.31 -1.101,-0.48 -3.567,-1.77 -4.059,-5.09 -2.922,-7.92 0.086,-0.35 0.246,-0.67 0.386,-1.01"
         style="fill:#ff9C8C;fill-opacity:1;fill-rule:nonzero;stroke:none"
         id="path348" /><path
         d="m 131.508,1033.33 c -35.8947,10.64 -46.7111,35.96 -44.3947,70.05 2.3398,34.47 11.4805,77.29 57.9457,69.61 34.562,-7.07 50.683,-39.98 50.183,-72.31 -0.59,-38.61 -16.109,-81.47 -63.734,-67.35 z m 17.254,153.1 c -47.489,7.84 -68.0862,-24.21 -73.7386,-65.81 -6.5351,-48.07 3.7344,-84.27 52.7776,-100.73 96.625,-32.441 112.758,147.77 20.961,166.54"
         style="fill:#ff9C8C;fill-opacity:1;fill-rule:nonzero;stroke:none"
         id="path350" /><path
         d="m 461.23,996.93 c 34.368,18.11 69.36,34.28 105.594,48.3 8.278,3.2 4.684,16.68 -3.699,13.44 -37.355,-14.45 -73.488,-31.04 -108.934,-49.71 -7.933,-4.18 -0.898,-16.21 7.039,-12.03"
         style="fill:#ff9C8C;fill-opacity:1;fill-rule:nonzero;stroke:none"
         id="path352" /><path
         d="M 74.9453,1218.94 C 39.8945,1193.28 25.5,1154.05 24.8125,1111.56 c -0.1445,-8.98 13.7891,-8.98 13.9375,0 0.5977,37.06 12.3633,72.74 43.2305,95.34 7.164,5.25 0.2187,17.34 -7.0352,12.04"
         style="fill:#ff9C8C;fill-opacity:1;fill-rule:nonzero;stroke:none"
         id="path354" /><path
         d="m 99.6719,1218.7 c 8.9651,0 8.9801,13.93 0,13.93 -8.9688,0 -8.9844,-13.93 0,-13.93"
         style="fill:#ff9C8C;fill-opacity:1;fill-rule:nonzero;stroke:none"
         id="path356" /></g></g></svg>
